<svg id="Capa_1" enable-background="new 0 0 512 512" height="512" viewBox="0 0 512 512" width="512" xmlns="http://www.w3.org/2000/svg"><g><g><g><g><g><g><g><circle cx="256" cy="256" fill="#ff7d81" r="256"/></g></g></g></g></g></g><path d="m512 256c0-8.729-.437-17.355-1.29-25.858l-107.791-107.792-196.196-28.145-116.868 97.881-29.141 173.896 140.042 140.042c17.792 3.913 36.277 5.976 55.244 5.976 141.385 0 256-114.615 256-256z" fill="#ff475a"/><g><path d="m440.493 322.197h-50v-95.09c0-63.483-51.647-115.131-115.131-115.131h-38.725c-63.483 0-115.131 51.647-115.131 115.131v95.09h-50v-95.09c0-91.053 74.077-165.131 165.131-165.131h38.725c91.054 0 165.131 74.077 165.131 165.131z" fill="#414952"/></g><g><path d="m275.362 61.976h-19.242v50h19.242c63.483 0 115.131 51.647 115.131 115.131v95.09h50v-95.09c0-91.054-74.077-165.131-165.131-165.131z" fill="#23272b"/></g><g><g><path d="m60.714 271.327h70.156v94.655h-70.156z" fill="#707789"/></g><g><path d="m381.13 271.327h70.156v94.655h-70.156z" fill="#555a66"/></g></g><g><g><path d="m96.507 250h75.584v137.308h-75.584z" fill="#555a66"/></g><g><path d="m339.91 250h75.584v137.308h-75.584z" fill="#333940"/></g></g></g></svg>