<?xml version="1.0" encoding="iso-8859-1"?>
<!-- Generator: Adobe Illustrator 21.0.0, SVG Export Plug-In . SVG Version: 6.00 Build 0)  -->
<svg version="1.1" id="Capa_1" xmlns="http://www.w3.org/2000/svg" xmlns:xlink="http://www.w3.org/1999/xlink" x="0px" y="0px"
	 viewBox="0 0 512 512" style="enable-background:new 0 0 512 512;" xml:space="preserve">
<circle style="fill:#414952;" cx="256" cy="256" r="256"/>
<path style="fill:#23272B;" d="M512,256c0-10.187-0.614-20.228-1.771-30.104L417.333,133L94.667,376.5l134.052,134.052
	C237.684,511.502,246.783,512,256,512C397.385,512,512,397.385,512,256z"/>
<rect x="94.67" y="133" style="fill:#FF0037;" width="322.67" height="226"/>
<rect x="255.76" y="133" style="fill:#D30F0F;" width="161.57" height="226"/>
<rect x="94.67" y="338.5" style="fill:#FFFFFF;" width="322.67" height="38"/>
<rect x="255.76" y="338.5" style="fill:#DCE1EB;" width="161.57" height="38"/>
<rect x="333.67" y="338.5" style="fill:#FDC300;" width="83.67" height="38"/>
<rect x="172.33" y="338.5" style="fill:#FFF200;" width="37" height="38"/>
<circle style="fill:#FFFFFF;" cx="256" cy="236" r="69.33"/>
<path style="fill:#DCE1EB;" d="M256,166.667c-0.08,0-0.158,0.006-0.238,0.006v138.655c0.08,0,0.158,0.006,0.238,0.006
	c38.292,0,69.333-31.042,69.333-69.333S294.292,166.667,256,166.667z"/>
<polygon style="fill:#3F4A4A;" points="304.833,236 229.833,192.699 229.833,279.301 "/>
<polygon style="fill:#323C3C;" points="255.762,207.669 255.762,264.331 304.833,236 "/>
<g>
</g>
<g>
</g>
<g>
</g>
<g>
</g>
<g>
</g>
<g>
</g>
<g>
</g>
<g>
</g>
<g>
</g>
<g>
</g>
<g>
</g>
<g>
</g>
<g>
</g>
<g>
</g>
<g>
</g>
</svg>
