<?xml version="1.0" standalone="no"?><!DOCTYPE svg PUBLIC "-//W3C//DTD SVG 20010904//EN"
 "http://www.w3.org/TR/2001/REC-SVG-20010904/DTD/svg10.dtd"><svg version="1.0" xmlns="http://www.w3.org/2000/svg" width="168" height="168" viewBox="0 0 1263 1263"><metadata>Created by potrace 1.16, written by Peter Selinger 2001-2019</metadata><path d="M611.1 313c-101.2 8.4-187.9 74.5-222.9 170-26 70.7-18.4 153.7 20 218.7 26 44.1 65.2 80.3 110.3 101.9 69 33 144.6 34.8 215.1 5 45.3-19.1 86.6-53.9 114.7-96.6 8-12.3 21-38.2 26.2-52.4 4.8-13 10.8-37 13.1-52.1 2.6-16.8 2.6-57 0-73.5-2.3-14.8-8.4-38.9-13.1-51.6-10.3-27.9-28-58.2-46.3-79.2-4.4-5.1-5.7-6.1-6.7-5-1.1 1.2-28.5 48.8-31.9 55.5l-1.7 3.3H755v-2.3c0-2.2 5-11.2 33.3-60.1l11.5-20-6.1-4.9c-37.8-30.3-82-49.1-129.2-55.1-15.4-2-40.1-2.7-53.4-1.6zM492.5 503.2c35.2 61.4 72.9 126.4 73.5 127.1.4.4 19.5-31.9 42.6-71.8l41.8-72.5h34.7l-1.5 2.7c-6.4 12.1-116.5 201.5-117.1 201.5-.7 0-96.9-165.5-115.2-198l-3.5-6.2h34.7l10 17.2zM770 486.9c0 .6-135.6 237.1-156.2 272.4l-4 6.8-8.5-14.7c-4.6-8.1-8.3-15.5-8-16.4.2-.9 14.8-26.6 32.4-57.1 17.5-30.5 49.6-86.1 71.2-123.7l39.4-68.2h16.8c9.3 0 16.9.4 16.9.9zM346.6 851.2l-7.6 13.3 8.2.3c4.4.2 8.5-.1 8.9-.5.9-.9 14.9-25.3 14.9-25.9 0-.2-3.8-.4-8.4-.4h-8.4l-7.6 13.2zM407.3 877.4c-13.9 4.5-23.1 15.4-25.5 30.3-2.6 15.6 5.6 31.4 20 38.5 6.3 3.1 7.3 3.3 17.2 3.3 10.1 0 10.8-.1 16.8-3.4 6.9-3.7 11-8.1 14.2-14.8 2.8-6.1 2.6-7.3-1.2-7.3-3 0-3.6.6-6.2 5.5-4.8 9.2-12.1 13.4-23.7 13.5-12.2 0-20.8-4.9-26.4-15.1-4-7.4-4.6-17.9-1.5-26.1 7.4-19.7 34.3-25.4 48-10.2 2 2.2 4.2 5.4 4.9 7.2 1.1 2.7 1.9 3.2 4.7 3.2 4.1 0 4.3-1.3 1-7.8-3.3-6.4-9-12-15.6-15.1-6.6-3.1-19.8-3.9-26.7-1.7zM493.3 877.5c-20.2 6.2-30.7 26.8-24.3 47.6 1.9 6.4 2.9 8.1 8.8 13.9 8.4 8.4 15 11.2 26.2 11.1 8.8 0 14.4-1.7 21.7-6.7 6.1-4.2 12.3-12.9 14.3-19.7 1.8-6.6.9-19.9-1.7-25.9-2.4-5.4-9.2-13.1-14.4-16.4-8-5-21.5-6.8-30.6-3.9zm23.2 8c10.8 5.1 17 15.2 16.9 27.5 0 9.2-2.6 15.8-8.7 21.8-15.6 15.3-40.8 9.4-48.7-11.4-5.5-14.6 1.9-31.9 16.3-38.5 6.4-2.9 17.3-2.6 24.2.6zM570.4 877.6c-5.1 1.8-11 7.5-12.5 12.1-.6 2-.9 5.7-.7 8.4 1 10.1 6.2 13.8 24.7 17.8 17.4 3.7 21.7 6.9 20.7 15.5-.9 8-9.8 13.3-20.9 12.4-10.6-.9-18.2-6.5-20.2-15.1-.6-2.3-1.2-2.7-4.1-2.7-2.9 0-3.4.4-3.4 2.3 0 3.7 4.9 12.5 8.8 15.7 2 1.6 5.7 3.7 8.3 4.5 4.9 1.7 16.4 2.1 21.5.9 11.6-2.8 18.2-11.5 17.2-22.6-.9-8.8-6.6-13.5-19.8-16.4-14.2-3-19.1-4.7-22.1-7.4-2.4-2.3-2.9-3.6-2.9-7.5 0-4 .5-5.2 3.3-8 9.3-9.3 28.9-6.1 33.7 5.5 1 2.5 1.8 3 4.6 3 3.8 0 4-.6 1.8-5.8-1.9-4.7-5.8-8.8-10.9-11.5-5.3-2.7-20.9-3.4-27.1-1.1zM896.1 877.9c-10.5 4-19.7 13.6-22.7 23.9-2.5 8.4-1.6 20.3 2.1 27.8 3.6 7.4 10.1 13.8 17.3 17.2 5 2.4 6.9 2.7 16.2 2.7 9.5 0 11.1-.3 16.2-2.8 7.9-3.9 14.5-11.7 17.2-20.5.7-2 .4-2.2-3.1-2.2-3.6 0-4 .3-5.2 3.6-1.9 5.3-7.4 10.9-13.3 13.4-6.7 2.9-19.1 2.5-25.3-.7-14.2-7.4-20.2-26.1-13.2-40.5 5.6-11.5 16.4-17.6 29.2-16.6 3.4.3 7.9 1.4 10 2.4 5.1 2.4 11.1 8.6 12.5 13 1.1 3.1 1.5 3.4 5.1 3.4 3.7 0 4-.2 3.3-2.3-2.7-8.6-9.3-16.5-17.2-20.4-7.6-3.7-21-4.3-29.1-1.4zM972.7 877.5c-9.1 3.4-13.7 9.6-13.7 18.5 0 5.9 1.7 9.7 5.9 13.3 3.7 3 6.6 4 19.4 6.7 16.3 3.3 19.7 5.8 19.7 14.3 0 4.2-.5 5.4-3.3 8.2-7 7-21.8 7.4-30.5.8-3.2-2.4-7.2-8.9-7.2-11.8 0-1.1-1-1.5-3.5-1.5-4 0-4.2.8-2.3 7.2 1.8 6.1 7.9 12.3 14.6 14.9 11.5 4.3 26.7 2.4 34.1-4.4 6.1-5.7 7.8-16.1 3.7-23.1-3.3-5.7-8.5-8.3-22.2-11.2-16.6-3.5-20.9-6.2-20.9-13.4 0-7.9 5.5-12.8 15.3-13.7 10.4-.9 18.8 3.1 21.4 10.2 1.1 3.2 1.6 3.5 5.1 3.5 3.5 0 3.8-.2 3.1-2.3-3.7-12.1-12.7-17.8-27.8-17.6-3.9 0-8.8.7-10.9 1.4zM251.6 878.4c.3.8 7.2 16.9 15.4 35.8l14.8 34.3H300.5l15.2-35.4c8.4-19.5 15.3-35.6 15.3-35.8 0-.2-4.4-.2-9.7-.1l-9.7.3-10 23.7c-5.5 13.1-10.3 23.8-10.6 23.8-.3 0-4.3-9.1-8.9-20.3-4.7-11.1-9.3-21.9-10.3-24L270 877h-9.5c-7.8 0-9.3.2-8.9 1.4zM338 913v36h18v-72h-18v36zM627 913v36h7l.2-27.7.3-27.8 12.3 20.8c11.5 19.3 12.6 20.8 15 20.5 2.2-.3 4.4-3.3 14.9-20.8l12.3-20.5V949h7v-72.1l-2.7.3c-2.4.3-4.4 3.2-16.5 23.3-7.6 12.6-14.2 23.3-14.7 23.8s-6.8-9.1-15.2-23.2c-13.2-22-14.6-24-17.1-24.1H627v36zM717 913v36h49v-7h-42v-25h38v-7h-38v-26h42v-7h-49v36zM774 880.5v3.5h27v65h7v-65h27v-7h-61v3.5zM847 913v36h8v-18.8c0-10.3-.3-26.5-.7-36l-.6-17.2H847v36z"/></svg>