<svg id="svg" class="viacademy" version="1.1" xmlns="http://www.w3.org/2000/svg" xmlns:xlink="http://www.w3.org/1999/xlink" width="400" height="285.8440575321726" viewBox="0, 0, 400,285.8440575321726"><g id="svgg"><path id="path0" d="M135.806 0.339 C 106.111 2.092,79.528 11.341,57.532 27.571 C 23.913 52.377,4.116 87.239,0.624 127.782 C -6.259 207.701,43.922 273.251,120.212 283.996 C 169.864 290.990,216.028 278.836,248.600 250.196 C 254.433 245.067,266.138 232.681,266.159 231.615 C 266.163 231.388,245.423 215.635,244.812 215.400 C 244.519 215.287,243.859 215.796,242.935 216.849 C 214.034 249.751,174.819 264.359,130.507 258.728 C 79.812 252.286,40.003 215.502,31.068 166.843 C 27.999 150.130,28.581 129.684,32.582 113.702 C 48.577 49.802,116.400 13.144,183.528 32.116 C 206.849 38.707,228.811 53.703,243.755 73.241 L 244.512 74.230 255.324 65.957 C 261.998 60.850,266.084 57.531,265.999 57.284 C 265.364 55.433,256.243 44.888,250.311 39.149 C 221.608 11.373,181.151 -2.339,135.806 0.339 M200.291 66.299 C 199.951 66.437,199.220 67.416,198.666 68.475 C 198.112 69.535,197.572 70.469,197.467 70.553 C 197.361 70.636,197.002 71.238,196.669 71.890 C 195.293 74.585,194.936 75.206,194.526 75.616 C 194.289 75.853,194.095 76.220,194.095 76.433 C 194.095 76.645,193.819 77.137,193.482 77.527 C 193.144 77.916,192.788 78.550,192.692 78.935 C 192.595 79.321,192.408 79.637,192.276 79.637 C 192.144 79.637,191.784 80.249,191.476 80.998 C 191.168 81.747,190.816 82.360,190.693 82.361 C 190.570 82.361,190.268 82.805,190.021 83.346 C 189.774 83.887,189.083 85.148,188.486 86.147 C 187.888 87.146,187.323 88.202,187.230 88.494 C 187.137 88.785,186.955 89.023,186.826 89.023 C 186.697 89.023,186.508 89.355,186.406 89.759 C 186.305 90.164,186.043 90.675,185.826 90.895 C 185.608 91.115,185.214 91.703,184.951 92.203 C 183.875 94.247,183.295 95.273,182.771 96.061 C 182.412 96.602,182.286 97.157,182.410 97.651 L 182.600 98.410 189.127 98.410 C 196.130 98.410,195.971 98.445,196.820 96.745 C 197.070 96.245,197.342 95.768,197.426 95.685 C 197.697 95.414,198.640 93.748,199.311 92.354 C 199.671 91.605,200.055 90.924,200.163 90.840 C 200.357 90.692,200.787 89.932,201.877 87.812 C 202.177 87.229,202.569 86.657,202.748 86.540 C 202.926 86.423,203.255 85.776,203.477 85.102 C 203.700 84.428,204.003 83.876,204.152 83.876 C 204.301 83.876,204.565 83.467,204.739 82.967 C 204.913 82.468,205.153 82.059,205.272 82.059 C 205.391 82.059,205.676 81.582,205.905 80.999 C 206.133 80.416,206.397 79.938,206.491 79.936 C 206.585 79.934,206.932 79.355,207.263 78.649 C 207.593 77.943,207.941 77.298,208.035 77.214 C 208.319 76.964,209.235 74.879,209.235 74.483 C 209.235 74.154,201.294 65.983,201.020 66.030 C 200.959 66.040,200.630 66.162,200.291 66.299 M62.074 110.167 C 62.074 110.754,62.925 112.680,63.302 112.945 C 63.506 113.089,63.869 113.742,65.254 116.452 C 65.587 117.104,66.030 117.818,66.238 118.038 C 66.446 118.258,66.616 118.555,66.616 118.698 C 66.616 118.841,66.789 119.138,67.000 119.358 C 67.211 119.578,67.641 120.337,67.954 121.045 C 68.268 121.752,68.615 122.332,68.725 122.332 C 68.835 122.332,69.113 122.808,69.341 123.391 C 69.570 123.974,69.855 124.451,69.974 124.451 C 70.093 124.451,70.333 124.860,70.507 125.360 C 70.681 125.859,70.956 126.268,71.118 126.268 C 71.280 126.268,71.499 126.660,71.604 127.139 C 71.709 127.618,72.129 128.462,72.537 129.015 C 72.944 129.567,73.278 130.190,73.278 130.400 C 73.278 130.609,73.448 130.889,73.656 131.022 C 73.864 131.155,74.276 131.741,74.571 132.324 C 74.867 132.907,75.506 134.065,75.992 134.898 C 76.479 135.731,77.034 136.787,77.226 137.245 C 77.419 137.702,77.666 138.077,77.776 138.077 C 77.885 138.077,78.167 138.520,78.403 139.061 C 78.638 139.603,78.918 140.114,79.025 140.197 C 79.131 140.280,79.743 141.302,80.385 142.468 C 81.027 143.634,81.656 144.657,81.782 144.742 C 81.908 144.827,82.105 145.271,82.220 145.730 C 82.335 146.188,82.585 146.664,82.774 146.787 C 82.964 146.909,83.390 147.555,83.722 148.221 C 84.053 148.887,84.394 149.500,84.479 149.584 C 84.722 149.823,85.635 151.452,86.176 152.612 C 86.447 153.195,86.774 153.740,86.902 153.823 C 87.123 153.966,87.467 154.578,88.872 157.330 C 89.205 157.983,89.648 158.625,89.856 158.758 C 90.064 158.892,90.235 159.188,90.235 159.418 C 90.235 159.648,90.411 160.016,90.626 160.236 C 90.841 160.456,91.313 161.249,91.676 161.998 C 92.369 163.429,93.304 165.072,93.572 165.329 C 93.658 165.413,93.902 165.821,94.114 166.238 C 94.325 166.654,94.904 167.676,95.400 168.509 C 95.896 169.341,96.500 170.453,96.743 170.979 C 96.986 171.505,97.290 171.982,97.419 172.039 C 97.548 172.096,97.926 172.676,98.259 173.328 C 99.635 176.023,99.992 176.644,100.402 177.054 C 100.639 177.291,100.833 177.658,100.833 177.871 C 100.833 178.083,101.109 178.576,101.447 178.965 C 101.784 179.354,102.140 179.988,102.236 180.374 C 102.333 180.759,102.503 181.075,102.614 181.075 C 102.726 181.075,103.086 181.687,103.414 182.435 C 103.743 183.183,104.114 183.796,104.239 183.797 C 104.364 183.799,104.466 183.949,104.466 184.132 C 104.466 184.314,104.728 184.831,105.047 185.280 C 105.367 185.728,106.066 186.907,106.600 187.900 C 107.687 189.917,108.403 190.832,108.403 190.203 C 108.403 189.960,108.617 189.883,108.979 189.998 C 109.447 190.147,109.654 189.923,110.080 188.807 C 110.369 188.052,110.706 187.434,110.830 187.434 C 110.953 187.434,111.234 186.991,111.453 186.450 C 111.671 185.908,111.938 185.397,112.045 185.314 C 112.152 185.231,112.765 184.209,113.407 183.043 C 114.049 181.877,114.662 180.855,114.768 180.772 C 114.874 180.689,115.154 180.178,115.390 179.637 C 115.625 179.095,115.907 178.653,116.017 178.653 C 116.127 178.653,116.372 178.278,116.563 177.820 C 116.754 177.362,117.308 176.306,117.795 175.473 C 118.281 174.640,118.909 173.448,119.189 172.824 C 119.469 172.199,119.797 171.688,119.918 171.688 C 120.039 171.688,120.317 171.245,120.536 170.704 C 120.755 170.163,121.088 169.624,121.276 169.508 C 121.465 169.391,121.801 168.744,122.024 168.069 C 122.246 167.395,122.550 166.843,122.699 166.843 C 122.847 166.843,123.111 166.435,123.285 165.935 C 123.460 165.435,123.700 165.026,123.819 165.026 C 123.938 165.026,124.222 164.550,124.451 163.967 C 124.680 163.384,124.957 162.907,125.067 162.907 C 125.177 162.907,125.523 162.328,125.835 161.620 C 126.147 160.912,126.489 160.265,126.596 160.182 C 126.845 159.986,128.822 156.470,129.617 154.807 C 129.956 154.099,130.348 153.520,130.489 153.520 C 130.629 153.520,130.827 153.189,130.929 152.784 C 131.031 152.380,131.292 151.869,131.509 151.649 C 131.901 151.253,132.734 149.781,133.690 147.798 C 133.963 147.233,134.380 146.576,134.617 146.339 C 134.854 146.102,135.131 145.577,135.233 145.172 C 135.335 144.767,135.537 144.436,135.684 144.436 C 135.830 144.436,136.152 143.993,136.401 143.452 C 136.798 142.585,137.485 141.327,139.005 138.683 C 139.244 138.266,139.508 137.858,139.591 137.774 C 139.741 137.624,140.298 136.622,141.526 134.292 C 141.878 133.626,142.246 133.013,142.345 132.930 C 142.524 132.780,142.985 131.956,144.042 129.902 C 144.342 129.319,144.734 128.746,144.913 128.629 C 145.091 128.513,145.420 127.866,145.642 127.191 C 145.865 126.517,146.160 125.965,146.297 125.965 C 146.435 125.965,146.757 125.522,147.014 124.981 C 147.271 124.440,147.886 123.316,148.383 122.483 C 148.879 121.650,149.451 120.628,149.655 120.212 C 149.859 119.796,150.096 119.387,150.183 119.304 C 150.359 119.135,150.613 118.702,152.581 115.216 C 153.333 113.883,154.025 112.725,154.119 112.642 C 154.449 112.349,155.034 110.790,155.034 110.205 C 155.034 109.636,154.778 109.614,148.261 109.614 L 141.489 109.614 140.691 110.819 C 140.253 111.481,139.894 112.151,139.894 112.307 C 139.894 112.464,139.792 112.637,139.667 112.692 C 139.542 112.748,139.197 113.270,138.901 113.853 C 138.032 115.562,137.032 117.323,136.837 117.487 C 136.659 117.637,136.197 118.460,135.140 120.515 C 134.840 121.098,134.449 121.670,134.270 121.787 C 134.091 121.904,133.763 122.551,133.540 123.225 C 133.318 123.899,133.023 124.451,132.885 124.451 C 132.748 124.451,132.425 124.894,132.168 125.435 C 131.912 125.977,131.296 127.101,130.800 127.933 C 130.304 128.766,129.731 129.788,129.527 130.204 C 129.324 130.621,129.086 131.030,128.999 131.113 C 128.912 131.196,128.637 131.673,128.388 132.173 C 128.138 132.672,127.853 133.149,127.754 133.232 C 127.654 133.316,127.381 133.741,127.147 134.177 C 125.756 136.772,125.256 137.640,125.075 137.774 C 124.963 137.858,124.692 138.369,124.473 138.910 C 124.254 139.451,123.966 139.894,123.832 139.894 C 123.699 139.894,123.436 140.360,123.248 140.930 C 123.060 141.499,122.716 142.123,122.483 142.316 C 122.250 142.510,121.901 143.149,121.706 143.738 C 121.512 144.327,121.096 145.066,120.783 145.379 C 120.469 145.693,120.212 146.154,120.212 146.404 C 120.212 146.654,120.085 146.858,119.929 146.858 C 119.773 146.858,119.473 147.335,119.262 147.918 C 119.052 148.501,118.791 148.978,118.683 148.978 C 118.575 148.978,118.230 149.557,117.917 150.265 C 117.603 150.973,117.173 151.732,116.962 151.952 C 116.751 152.172,116.578 152.469,116.578 152.612 C 116.578 152.754,116.408 153.051,116.200 153.271 C 115.992 153.491,115.579 154.148,115.282 154.731 C 114.347 156.571,113.407 158.208,113.191 158.371 C 113.076 158.458,112.828 158.866,112.640 159.279 C 112.451 159.692,111.932 160.656,111.485 161.420 C 111.039 162.184,110.418 163.267,110.105 163.827 C 109.792 164.387,109.349 165.032,109.120 165.260 C 108.892 165.489,108.706 165.820,108.706 165.997 C 108.706 166.463,107.616 164.999,107.364 164.194 C 107.247 163.819,107.052 163.512,106.930 163.512 C 106.809 163.512,106.457 162.899,106.148 162.150 C 105.839 161.400,105.479 160.787,105.349 160.787 C 105.218 160.787,104.939 160.310,104.728 159.727 C 104.517 159.145,104.252 158.668,104.138 158.668 C 104.024 158.668,103.850 158.429,103.751 158.138 C 103.651 157.846,103.086 156.790,102.495 155.791 C 101.904 154.792,101.218 153.531,100.971 152.990 C 100.724 152.449,100.415 152.006,100.284 152.006 C 100.153 152.006,99.874 151.529,99.663 150.946 C 99.452 150.363,99.171 149.886,99.037 149.886 C 98.904 149.886,98.561 149.273,98.275 148.524 C 97.989 147.774,97.640 147.161,97.500 147.161 C 97.360 147.161,97.089 146.684,96.896 146.101 C 96.704 145.519,96.437 145.042,96.304 145.042 C 96.171 145.042,95.882 144.599,95.663 144.058 C 95.444 143.516,95.174 143.005,95.062 142.922 C 94.950 142.839,94.564 142.226,94.205 141.559 C 93.846 140.893,93.147 139.667,92.652 138.834 C 92.157 138.002,91.658 137.116,91.545 136.866 C 91.431 136.616,91.257 136.344,91.157 136.260 C 91.057 136.177,90.720 135.530,90.407 134.822 C 90.095 134.114,89.739 133.535,89.616 133.535 C 89.493 133.535,89.309 133.204,89.207 132.799 C 89.106 132.395,88.842 131.883,88.620 131.661 C 88.189 131.229,87.599 130.209,86.597 128.160 C 86.250 127.453,85.859 126.874,85.727 126.874 C 85.595 126.874,85.307 126.329,85.087 125.662 C 84.867 124.996,84.575 124.451,84.437 124.451 C 84.299 124.451,83.975 124.008,83.715 123.467 C 83.456 122.926,82.848 121.802,82.366 120.969 C 81.883 120.136,81.313 119.114,81.099 118.698 C 80.884 118.282,80.638 117.873,80.551 117.790 C 80.378 117.623,79.368 115.806,78.531 114.156 C 78.236 113.573,77.819 112.916,77.604 112.696 C 77.390 112.476,77.214 112.179,77.214 112.036 C 77.214 111.894,77.044 111.591,76.836 111.364 C 76.628 111.137,76.306 110.684,76.122 110.358 C 75.611 109.456,62.074 109.272,62.074 110.167 M175.138 109.846 C 174.842 110.041,173.683 112.036,171.941 115.346 C 171.641 115.918,171.290 116.463,171.163 116.558 C 171.035 116.652,170.659 117.263,170.326 117.916 C 168.949 120.611,168.592 121.232,168.182 121.642 C 167.945 121.878,167.752 122.246,167.752 122.458 C 167.752 122.671,167.475 123.163,167.138 123.552 C 166.800 123.942,166.445 124.576,166.348 124.961 C 166.251 125.347,166.064 125.662,165.932 125.662 C 165.800 125.662,165.440 126.275,165.132 127.024 C 164.824 127.773,164.470 128.386,164.345 128.386 C 164.220 128.387,164.118 128.533,164.118 128.712 C 164.118 128.890,163.739 129.605,163.275 130.301 C 162.811 130.997,162.038 132.316,161.557 133.232 C 161.077 134.148,160.597 134.966,160.491 135.049 C 160.385 135.132,160.120 135.643,159.901 136.185 C 159.682 136.726,159.393 137.169,159.260 137.169 C 159.127 137.169,158.863 137.637,158.674 138.209 C 158.485 138.781,158.217 139.292,158.079 139.345 C 157.842 139.434,157.564 139.917,156.094 142.796 C 155.761 143.448,155.318 144.091,155.110 144.224 C 154.902 144.357,154.731 144.632,154.731 144.835 C 154.731 145.038,154.398 145.695,153.990 146.295 C 153.582 146.895,153.158 147.744,153.049 148.182 C 152.939 148.620,152.737 148.978,152.599 148.978 C 152.462 148.978,152.263 149.250,152.158 149.582 C 152.053 149.914,151.805 150.357,151.608 150.566 C 151.410 150.775,151.007 151.423,150.710 152.006 C 149.841 153.715,148.841 155.476,148.646 155.640 C 148.468 155.789,148.006 156.613,146.949 158.668 C 146.650 159.251,146.242 159.899,146.044 160.109 C 145.846 160.319,145.512 160.966,145.302 161.547 C 145.092 162.129,144.813 162.604,144.682 162.604 C 144.551 162.604,144.245 163.047,144.002 163.588 C 143.533 164.633,142.579 166.288,142.301 166.540 C 142.209 166.624,141.882 167.237,141.575 167.903 C 141.267 168.569,140.933 169.182,140.833 169.266 C 140.732 169.349,140.446 169.826,140.197 170.326 C 139.948 170.825,139.662 171.302,139.563 171.385 C 139.355 171.559,138.672 172.797,137.781 174.616 C 137.440 175.311,137.061 175.924,136.938 175.979 C 136.815 176.034,136.477 176.556,136.187 177.139 C 135.665 178.186,135.546 178.391,134.254 180.469 C 133.892 181.052,133.501 181.849,133.384 182.240 C 133.268 182.631,132.914 183.211,132.597 183.527 C 132.280 183.844,132.021 184.307,132.021 184.557 C 132.021 184.807,131.910 185.011,131.775 185.011 C 131.639 185.011,131.342 185.488,131.113 186.071 C 130.884 186.654,130.607 187.131,130.496 187.131 C 130.386 187.131,130.043 187.744,129.734 188.494 C 129.425 189.243,129.073 189.856,128.952 189.856 C 128.830 189.856,128.645 190.128,128.540 190.460 C 128.434 190.792,128.187 191.235,127.989 191.444 C 127.792 191.653,127.358 192.358,127.025 193.010 C 125.658 195.688,125.293 196.325,124.906 196.711 C 124.683 196.935,124.411 197.527,124.300 198.029 C 124.190 198.530,123.976 198.940,123.824 198.940 C 123.560 198.940,122.930 200.003,121.867 202.239 C 121.598 202.805,121.184 203.462,120.947 203.699 C 120.710 203.936,120.433 204.461,120.331 204.866 C 120.229 205.271,120.046 205.602,119.922 205.602 C 118.734 205.602,118.603 209.324,119.757 210.295 C 119.955 210.462,120.282 211.100,120.484 211.714 C 120.686 212.328,120.965 212.873,121.104 212.925 C 121.242 212.978,121.609 213.519,121.919 214.128 C 124.920 220.022,126.033 220.865,127.155 218.092 C 127.374 217.551,127.652 217.108,127.773 217.108 C 127.894 217.108,128.223 216.597,128.505 215.973 C 129.185 214.466,130.096 212.805,130.492 212.351 C 130.669 212.149,130.980 211.604,131.184 211.139 C 131.388 210.675,131.640 210.227,131.745 210.144 C 131.850 210.061,132.447 209.039,133.073 207.873 C 133.699 206.707,134.468 205.392,134.782 204.949 C 135.095 204.507,135.352 204.008,135.352 203.839 C 135.352 203.671,135.454 203.487,135.579 203.432 C 135.704 203.376,136.079 202.797,136.412 202.145 C 137.788 199.450,138.145 198.829,138.555 198.419 C 138.792 198.182,138.986 197.815,138.986 197.602 C 138.986 197.390,139.262 196.898,139.599 196.508 C 139.937 196.119,140.293 195.485,140.389 195.099 C 140.486 194.714,140.673 194.398,140.805 194.398 C 140.937 194.398,141.297 193.786,141.605 193.037 C 141.913 192.288,142.267 191.675,142.392 191.674 C 142.517 191.673,142.619 191.527,142.619 191.349 C 142.619 191.171,142.999 190.455,143.463 189.759 C 143.926 189.063,144.699 187.744,145.180 186.828 C 145.661 185.912,146.133 185.095,146.229 185.011 C 146.325 184.928,146.646 184.383,146.941 183.800 C 147.235 183.217,147.812 182.195,148.221 181.529 C 148.630 180.863,149.193 179.807,149.472 179.182 C 149.750 178.558,150.077 178.047,150.198 178.047 C 150.320 178.047,150.598 177.604,150.817 177.063 C 151.036 176.522,151.297 176.011,151.397 175.927 C 151.625 175.738,152.674 173.946,154.057 171.385 C 154.642 170.303,155.203 169.349,155.304 169.266 C 155.405 169.182,155.761 168.581,156.094 167.928 C 157.470 165.233,157.827 164.612,158.237 164.202 C 158.474 163.966,158.668 163.587,158.668 163.361 C 158.668 163.135,158.861 162.756,159.098 162.520 C 159.508 162.110,159.865 161.489,161.241 158.794 C 161.575 158.142,162.017 157.499,162.226 157.366 C 162.434 157.233,162.604 156.992,162.604 156.831 C 162.604 156.531,165.598 151.068,165.912 150.795 C 166.008 150.712,166.359 150.110,166.692 149.458 C 168.068 146.763,168.425 146.142,168.835 145.732 C 169.072 145.495,169.266 145.127,169.266 144.915 C 169.266 144.703,169.542 144.210,169.880 143.821 C 170.217 143.432,170.573 142.798,170.669 142.412 C 170.766 142.026,170.953 141.711,171.085 141.711 C 171.217 141.711,171.577 141.098,171.885 140.349 C 172.193 139.601,172.531 138.987,172.635 138.987 C 172.740 138.986,173.005 138.543,173.224 138.002 C 173.443 137.460,173.710 136.949,173.817 136.866 C 173.924 136.783,174.537 135.761,175.179 134.595 C 175.821 133.429,176.430 132.407,176.532 132.324 C 176.635 132.241,176.898 131.730,177.117 131.188 C 177.336 130.647,177.614 130.204,177.735 130.204 C 177.856 130.204,178.183 129.693,178.462 129.069 C 178.740 128.444,179.303 127.388,179.712 126.722 C 180.122 126.056,180.698 125.034,180.993 124.451 C 181.288 123.868,181.665 123.242,181.832 123.059 C 181.998 122.877,182.612 121.792,183.195 120.650 C 183.777 119.507,184.425 118.386,184.633 118.159 C 184.841 117.932,185.011 117.630,185.011 117.487 C 185.011 117.344,185.182 117.047,185.390 116.827 C 185.598 116.607,186.041 115.893,186.374 115.241 C 187.750 112.546,188.107 111.925,188.517 111.515 C 188.754 111.278,188.948 110.754,188.948 110.349 L 188.948 109.614 182.210 109.619 C 178.505 109.621,175.322 109.723,175.138 109.846 M289.074 117.689 C 288.963 117.800,288.872 121.833,288.872 126.653 L 288.872 135.415 287.804 134.477 C 282.327 129.668,273.485 132.125,270.649 139.242 C 269.832 141.293,269.423 158.091,270.096 161.968 C 272.325 174.817,290.723 174.978,293.083 162.170 C 293.573 159.512,293.543 118.342,293.051 117.850 C 292.671 117.470,289.424 117.338,289.074 117.689 M189.652 132.438 C 185.488 133.803,182.326 137.986,182.188 142.312 L 182.135 143.982 184.223 143.982 L 186.312 143.982 186.828 142.096 C 187.938 138.042,190.022 136.402,193.793 136.615 C 198.166 136.862,199.935 139.196,200.104 144.940 L 200.212 148.624 194.959 148.725 C 184.810 148.921,179.709 154.266,181.682 162.637 C 184.193 173.294,199.111 174.946,203.736 165.080 L 204.542 163.361 204.542 151.703 L 204.542 140.045 203.733 138.321 C 201.444 133.436,194.920 130.711,189.652 132.438 M219.379 132.428 C 215.397 133.743,212.843 136.429,211.813 140.384 C 211.240 142.582,211.148 160.086,211.695 162.665 C 214.368 175.259,232.305 174.395,234.430 161.569 C 234.894 158.769,234.786 158.622,232.349 158.729 L 230.322 158.819 229.780 161.032 C 227.833 168.965,217.821 169.351,216.202 161.556 C 215.604 158.674,215.914 142.164,216.595 140.651 C 219.650 133.864,229.826 136.119,229.826 143.583 C 229.826 144.360,233.976 144.415,234.273 143.642 C 234.913 141.972,232.889 136.928,230.808 135.010 C 228.025 132.445,222.860 131.278,219.379 132.428 M247.798 132.628 C 244.258 133.783,241.484 137.258,240.706 141.514 C 240.246 144.027,240.332 144.133,242.823 144.133 L 244.938 144.133 245.129 142.998 C 245.846 138.729,248.117 136.556,251.845 136.570 C 256.457 136.587,258.440 139.102,258.798 145.390 L 258.982 148.615 253.564 148.724 C 243.208 148.932,238.243 154.164,240.255 162.749 C 242.796 173.594,258.461 174.820,262.573 164.496 C 263.401 162.417,263.817 145.354,263.135 141.438 C 261.892 134.303,254.929 130.302,247.798 132.628 M308.706 132.448 C 305.379 133.272,302.855 135.368,301.378 138.531 L 300.530 140.348 300.530 151.855 L 300.530 163.361 301.402 165.249 C 306.121 175.466,321.509 172.928,323.413 161.618 C 323.893 158.764,323.824 158.668,321.295 158.668 L 319.180 158.668 319.002 159.803 C 318.212 164.860,315.200 167.600,311.054 167.032 C 306.846 166.455,304.938 163.743,304.927 158.319 L 304.921 155.094 310.144 154.980 C 318.203 154.804,321.644 152.717,323.261 147.025 C 325.819 138.014,317.969 130.152,308.706 132.448 M337.415 132.566 C 334.139 133.735,332.256 135.577,330.896 138.942 C 330.208 140.642,330.204 140.734,330.204 155.640 L 330.204 170.628 332.386 170.717 L 334.568 170.806 334.657 156.174 L 334.746 141.542 335.505 140.069 C 337.976 135.269,344.467 135.338,346.675 140.188 C 347.093 141.107,347.183 143.319,347.313 155.942 L 347.464 170.628 349.638 170.717 L 351.813 170.805 351.909 156.334 C 352.015 140.584,352.040 140.351,353.910 138.283 C 355.968 136.008,360.762 136.008,362.820 138.283 C 364.689 140.351,364.715 140.584,364.820 156.334 L 364.917 170.805 367.091 170.717 L 369.266 170.628 369.352 157.002 C 369.471 138.098,368.826 135.613,363.122 133.002 C 358.419 130.849,351.446 132.893,349.942 136.866 C 349.799 137.244,349.710 137.225,349.412 136.749 C 346.925 132.788,341.800 131.001,337.415 132.566 M377.060 132.978 C 376.483 133.555,376.538 158.382,377.123 161.140 C 378.856 169.317,388.433 172.948,394.416 167.696 L 395.510 166.735 395.408 172.022 C 395.313 176.994,395.260 177.399,394.533 178.811 C 391.669 184.371,382.617 182.909,381.687 176.736 C 381.209 173.564,381.427 173.808,379.073 173.808 C 376.556 173.808,376.486 173.906,376.966 176.758 C 378.870 188.070,393.870 190.656,398.855 180.532 L 399.849 178.514 399.849 155.646 L 399.849 132.778 398.355 132.684 C 397.533 132.632,396.550 132.667,396.171 132.762 L 395.481 132.935 395.394 146.786 C 395.308 160.375,395.294 160.659,394.643 161.876 C 391.947 166.914,384.872 166.904,382.291 161.859 L 381.378 160.075 381.226 146.426 L 381.075 132.778 379.256 132.690 C 378.101 132.634,377.299 132.739,377.060 132.978 M285.592 137.624 C 286.501 138.253,287.183 139.089,287.812 140.348 L 288.721 142.165 288.721 151.876 L 288.721 161.587 287.808 163.373 C 285.226 168.420,277.983 168.420,275.402 163.372 L 274.489 161.587 274.489 151.876 L 274.489 142.165 275.285 140.467 C 277.073 136.655,282.162 135.251,285.592 137.624 M314.413 136.933 C 318.274 138.090,320.223 143.284,318.247 147.154 C 316.888 149.817,315.127 150.477,309.360 150.485 L 304.866 150.492 304.969 145.850 C 305.138 138.235,308.418 135.137,314.413 136.933 M200.151 157.251 C 200.151 163.529,198.807 165.985,194.892 166.861 C 188.644 168.259,183.715 161.724,186.981 156.373 C 188.553 153.798,190.151 153.217,195.664 153.217 L 200.151 153.217 200.151 157.251 M258.827 157.444 C 258.594 163.932,256.963 166.474,252.689 167.008 C 244.791 167.994,241.214 157.064,248.371 153.815 C 249.463 153.320,250.371 153.230,254.319 153.224 L 258.979 153.217 258.827 157.444 " stroke="none" fill="#000000" fill-rule="evenodd"></path></g></svg>