<svg id="svg" class="vicosmetics" version="1.1" xmlns="http://www.w3.org/2000/svg" xmlns:xlink="http://www.w3.org/1999/xlink" width="400" height="351.4360313315927" viewBox="0, 0, 400,351.4360313315927"><g id="svgg"><path id="path0" d="M189.067 2.620 C 184.564 2.994,179.016 3.758,172.063 4.963 C 138.019 10.862,101.361 37.433,82.797 69.665 C 81.041 72.714,75.041 84.632,74.886 85.379 C 74.827 85.666,74.046 87.781,73.151 90.078 C 60.227 123.271,62.520 166.342,78.893 197.911 C 80.010 200.065,81.339 202.650,81.846 203.655 C 82.353 204.661,83.061 205.794,83.420 206.173 C 83.779 206.553,84.073 207.091,84.073 207.370 C 84.073 207.649,84.318 208.161,84.617 208.508 C 84.917 208.855,86.906 211.606,89.039 214.621 C 97.327 226.344,106.796 236.304,117.232 244.277 C 120.104 246.472,122.533 248.451,122.628 248.676 C 122.724 248.902,123.091 249.086,123.444 249.086 C 123.796 249.086,124.548 249.497,125.113 250.000 C 125.678 250.503,126.956 251.366,127.953 251.919 C 128.950 252.472,129.883 253.083,130.026 253.278 C 132.793 257.033,162.674 268.026,176.762 270.473 C 284.547 289.193,368.822 177.233,321.198 78.590 C 314.352 64.409,300.744 45.136,298.958 47.092 C 298.355 47.752,284.089 72.605,282.301 76.110 L 281.435 77.807 272.833 77.807 L 264.230 77.807 264.230 76.605 C 264.230 75.475,266.837 70.766,281.611 45.207 L 287.627 34.800 284.414 32.223 C 274.914 24.604,255.284 12.892,251.310 12.472 C 251.092 12.449,250.444 12.167,249.869 11.847 C 249.295 11.526,248.708 11.243,248.564 11.216 C 248.420 11.190,245.601 10.278,242.298 9.190 C 225.876 3.780,205.459 1.261,189.067 2.620 M127.132 101.958 C 145.556 134.001,165.198 167.948,165.518 168.300 C 165.725 168.528,175.734 151.667,187.760 130.832 L 209.626 92.950 218.665 92.950 L 227.703 92.950 226.943 94.386 C 223.625 100.653,166.111 199.566,165.781 199.573 C 165.455 199.579,115.197 113.175,105.661 96.214 L 103.827 92.950 112.890 92.950 L 121.953 92.950 127.132 101.958 M272.063 93.404 C 272.063 93.750,201.265 217.250,190.502 235.678 L 188.421 239.242 183.988 231.551 C 181.550 227.321,179.657 223.467,179.783 222.987 C 179.908 222.507,187.519 209.091,196.694 193.172 C 205.870 177.254,222.618 148.192,233.912 128.590 L 254.446 92.950 263.254 92.950 C 268.099 92.950,272.063 93.154,272.063 93.404 M50.974 283.681 L 47.001 290.601 51.259 290.754 C 53.600 290.838,55.697 290.720,55.918 290.492 C 56.377 290.019,63.708 277.298,63.708 276.975 C 63.708 276.858,61.737 276.762,59.328 276.762 L 54.948 276.762 50.974 283.681 M82.656 297.339 C 71.299 301.014,65.920 313.579,71.039 324.470 C 77.572 338.369,98.604 338.994,104.957 325.479 C 107.311 320.472,103.708 319.574,101.122 324.522 C 94.292 337.595,74.069 332.135,73.224 316.991 C 72.292 300.261,95.504 293.349,101.775 308.489 C 102.557 310.377,106.005 311.105,106.005 309.382 C 106.005 301.492,92.055 294.297,82.656 297.339 M127.565 297.363 C 114.090 301.574,109.396 318.180,118.660 328.867 C 120.172 330.612,121.704 332.056,122.063 332.077 C 122.422 332.098,122.715 332.306,122.715 332.541 C 122.715 334.657,134.907 336.072,139.426 334.480 C 155.363 328.867,157.254 310.063,143.000 298.929 C 140.452 296.938,131.749 296.056,127.565 297.363 M169.681 296.804 C 169.520 296.969,168.900 297.179,168.303 297.270 C 164.381 297.868,160.958 302.425,160.956 307.050 C 160.954 313.140,163.535 315.220,173.829 317.423 C 182.904 319.365,185.186 321.070,184.658 325.515 C 183.528 335.018,165.527 333.876,163.161 324.151 C 162.678 322.169,159.269 321.965,159.269 323.918 C 159.269 336.633,183.981 339.824,188.005 327.629 C 190.165 321.085,186.614 316.425,178.068 314.588 C 167.155 312.242,165.295 311.141,165.086 306.900 C 164.665 298.340,180.880 297.145,184.333 305.481 C 184.984 307.052,188.512 307.922,188.512 306.511 C 188.512 303.942,185.298 299.764,181.984 298.025 C 179.953 296.959,170.448 296.015,169.681 296.804 M338.773 297.321 C 337.696 297.721,336.815 297.943,336.815 297.814 C 336.815 297.685,336.132 298.065,335.298 298.659 C 334.464 299.253,333.642 299.739,333.472 299.739 C 332.638 299.739,328.268 305.038,327.011 307.572 C 324.857 311.918,324.905 320.019,327.112 324.515 C 334.563 339.691,357.235 338.610,362.109 322.846 C 362.833 320.504,358.606 321.196,357.752 323.559 C 352.447 338.229,329.294 332.020,329.294 315.927 C 329.294 310.369,333.941 302.218,337.368 301.762 C 338.111 301.664,338.544 301.521,339.687 300.999 C 345.496 298.345,355.791 302.565,357.713 308.387 C 358.402 310.476,362.562 311.272,362.254 309.256 C 362.049 307.914,359.054 302.843,357.510 301.226 C 353.859 297.400,344.052 295.356,338.773 297.321 M377.915 297.406 C 373.176 299.145,370.757 302.406,370.757 307.055 C 370.757 313.171,373.507 315.338,383.990 317.482 C 392.470 319.217,394.256 320.520,394.256 324.973 C 394.256 333.707,378.192 334.803,373.886 326.361 C 373.314 325.241,372.846 323.962,372.846 323.519 C 372.846 322.949,372.316 322.715,371.018 322.715 C 368.954 322.715,368.812 323.157,369.805 326.472 C 373.041 337.273,392.759 338.877,397.446 328.721 C 400.843 321.362,396.869 316.445,385.598 314.058 C 376.897 312.215,374.697 310.804,374.697 307.065 C 374.697 298.393,390.782 296.864,393.814 305.248 C 394.643 307.539,398.843 308.148,398.141 305.875 C 395.799 298.301,386.307 294.326,377.915 297.406 M1.747 298.825 C 2.142 299.758,5.460 307.454,9.122 315.927 C 12.784 324.399,15.825 331.567,15.879 331.854 C 16.365 334.435,17.118 334.770,22.086 334.615 L 26.883 334.465 34.852 315.961 C 39.234 305.784,42.820 297.375,42.820 297.274 C 42.820 297.173,40.537 297.157,37.747 297.240 L 32.674 297.389 27.457 309.791 C 24.588 316.612,22.112 322.191,21.955 322.187 C 21.799 322.184,19.691 317.426,17.271 311.613 C 14.850 305.800,12.437 300.163,11.908 299.086 L 10.945 297.128 5.988 297.128 L 1.030 297.128 1.747 298.825 M46.475 315.927 L 46.475 334.726 51.175 334.726 L 55.875 334.726 55.875 315.927 L 55.875 297.128 51.175 297.128 L 46.475 297.128 46.475 315.927 M197.389 315.927 L 197.389 334.726 199.208 334.726 L 201.028 334.726 201.167 320.237 L 201.305 305.748 207.750 316.612 C 216.062 330.624,214.835 330.637,223.344 316.449 L 229.764 305.744 229.764 320.235 L 229.765 334.726 231.593 334.726 L 233.420 334.726 233.420 315.892 L 233.420 297.059 232.003 297.224 C 230.763 297.368,229.690 298.881,223.385 309.376 C 215.332 322.780,215.333 322.778,214.798 321.367 C 214.590 320.816,214.171 320.101,213.867 319.778 C 213.564 319.455,210.379 314.233,206.789 308.174 C 200.830 298.118,200.136 297.156,198.825 297.143 L 197.389 297.128 197.389 315.927 M244.386 315.927 L 244.386 334.726 257.180 334.726 L 269.974 334.726 269.974 332.898 L 269.974 331.070 259.008 331.070 L 248.042 331.070 248.042 324.543 L 248.042 318.016 257.963 318.016 L 267.885 318.016 267.885 316.188 L 267.885 314.360 257.963 314.360 L 248.042 314.360 248.042 307.572 L 248.042 300.783 259.008 300.783 L 269.974 300.783 269.974 298.956 L 269.974 297.128 257.180 297.128 L 244.386 297.128 244.386 315.927 M274.151 298.956 L 274.151 300.783 281.201 300.783 L 288.251 300.783 288.251 317.755 L 288.251 334.726 290.078 334.726 L 291.906 334.726 291.906 317.755 L 291.906 300.783 298.956 300.783 L 306.005 300.783 306.005 298.956 L 306.005 297.128 290.078 297.128 L 274.151 297.128 274.151 298.956 M312.272 315.927 L 312.272 334.726 314.360 334.726 L 316.449 334.726 316.447 324.935 C 316.447 319.550,316.292 311.090,316.104 306.136 L 315.763 297.128 314.017 297.128 L 312.272 297.128 312.272 315.927 M138.755 301.115 C 139.986 301.585,140.992 302.173,140.992 302.421 C 140.992 302.669,141.264 302.872,141.595 302.872 C 144.452 302.872,148.544 310.568,148.537 315.927 C 148.512 333.609,124.807 337.925,118.562 321.384 C 113.869 308.951,126.384 296.390,138.755 301.115 " stroke="none" fill="#000000" fill-rule="evenodd"></path></g></svg>