<?xml version="1.0" standalone="no"?><!DOCTYPE svg PUBLIC "-//W3C//DTD SVG 20010904//EN"
 "http://www.w3.org/TR/2001/REC-SVG-20010904/DTD/svg10.dtd"><svg version="1.0" xmlns="http://www.w3.org/2000/svg" width="200" height="200" viewBox="0 0 2000 2000"><metadata>Created by potrace 1.16, written by Peter Selinger 2001-2019</metadata><path d="M777.5 210.6c-65.5 5-113.9 13.7-169 30.4-28.5 8.7-72.4 25.5-91.7 35.2L511 279v79l9.3-5c44.4-23.7 106.4-46.2 159.7-57.8 49.6-10.9 85.7-14.7 139.5-14.7 43.8 0 66.9 1.8 105.5 8.1 120.4 19.6 235.5 74.7 329.8 157.6L1267 457V364.3l-12.7-9.5c-100-74.3-214.4-121.6-334.4-138.3-35.2-4.8-47.9-5.7-93.9-6-23.9-.1-45.7-.1-48.5.1zM434.1 320.9c-80.2 50.6-150.8 116.3-208.5 194C143.8 625.2 91.5 756.5 74.1 895.5c-5 39.1-5.6 50.5-5.6 104.5s.6 65.4 5.6 104.5c26.6 211.6 133.8 402.8 297.6 530.7 21.8 17 61.8 44.6 75.1 51.7l2.2 1.2v-83.6l-13.1-9.5c-31-22.4-55-42.9-84.5-72.4-22.7-22.7-35.7-37.2-54.2-60.4-79.4-99.4-132.5-222.9-151.2-351.2-5.9-40.6-7.5-64.3-7.5-111s1.6-70.4 7.5-111c18.7-128.3 71.9-251.8 151.2-351.2 18.5-23.2 31.5-37.7 54.2-60.4 29.5-29.5 53.5-50 84.5-72.4l13.1-9.5v-41.8c0-22.9-.1-41.7-.3-41.7-.2 0-6.8 4-14.6 8.9z"/><path d="M448 999v579.3l5.9-6.4c3.2-3.5 17.3-19 31.4-34.4l25.7-28v-71.4l127.8-.4c122.8-.4 139.3-.7 143.7-2.7 1.1-.5 7.3-1.4 13.8-2.1 6.4-.6 11.7-1.5 11.7-1.8 0-.4 3.7-1.3 8.3-2 4.5-.7 8.7-1.6 9.2-2.1.6-.4 3.6-1.3 6.8-2 3.2-.6 7-1.8 8.5-2.6s3.3-1.4 4-1.4c.7 0 3.2-.9 5.5-1.9 2.4-1.1 5.5-2.3 7-2.6 1.5-.4 2.7-1 2.7-1.4 0-.4 1.6-1.3 3.6-2 6.4-2.3 27.7-15.3 31.7-19.3 1-1 2.2-1.8 2.7-1.8 3 0 35-35.3 35-38.7 0-.6.6-1.6 1.3-2 1.3-.9 3-3.6 8.2-13.8 2-3.9 4-7.7 4.5-8.5 1.5-2.5 6-12.8 6-13.7 0-.4.6-2 1.4-3.5.8-1.5 2-5.2 2.7-8.3.7-3 1.5-5.5 1.9-5.5.4 0 1.3-3.4 2.1-7.5.7-4.1 1.6-7.5 2-7.5.3 0 1.2-4.8 1.9-10.8.7-5.9 1.7-10.9 2.1-11.2.4-.3 1.3-10.2 1.9-22 1.3-21.6.8-52.5-1-64.5-2.1-14.1-4.1-25.1-4.9-26.5-.4-.8-1.4-4.5-2.1-8.3-.8-3.7-1.7-6.7-2.1-6.7-.4 0-1-1.7-1.4-3.8-.4-2-1.5-5.6-2.6-7.9-1-2.3-1.9-4.5-1.9-4.9 0-1.2-9.4-19.9-10.6-21.2-.7-.6-1.6-2.2-2-3.4-.3-1.2-1-2.6-1.5-3.2-.5-.6-4.9-6.5-9.8-13.1-8-10.9-23.2-27.1-31.2-33.5-1.7-1.4-3.7-3-4.3-3.5-.6-.6-4.7-3.4-9.1-6.3-4.4-2.8-8.5-5.6-9.1-6.1-.6-.4-2.7-1.4-4.7-2.2-2-.7-3.7-1.6-3.7-2 0-.4-1.7-1.3-3.7-1.9-2.1-.7-4.7-1.8-5.8-2.5-1.1-.6-3.3-1.5-5-1.9-1.6-.4-4.3-1.4-6-2.1-1.6-.8-3.9-1.6-5-1.8-1.6-.3-1.3-.6 1.3-1.2 1.7-.4 3.2-1.1 3.2-1.4 0-.4 1.6-1.3 3.6-2 6-2.2 24.5-13.4 32.9-19.9 12.5-9.6 23.4-20.8 31.7-32.3 10.5-14.4 13.3-18.8 14.3-22.1.4-1.3 1.3-3 2-3.8.7-.8 1.6-2.6 2-4 .4-1.4 1.2-3.1 1.8-3.8 1-1.3 2.7-5.6 6.1-15.7 1-2.8 2.1-5.7 2.6-6.6.4-.8 1.3-4.2 2-7.4s1.6-6.6 2.1-7.4c.8-1.5 2.8-12.7 5-28.6 1.3-9.2 1.3-57 0-66-2.4-16.5-4.2-27.1-5-28.5-.4-.8-1.3-4-2-7s-1.6-6.4-2.1-7.5c-.5-1.1-1.4-3.8-2.1-6-1.1-3.8-7.9-19.3-9.9-22.5-.5-.8-2-3.8-3.5-6.6-2.5-5.2-3.8-7.2-11-17.4-7-10-21.7-25.9-30.6-33-1.7-1.4-3.7-3-4.3-3.5-2.7-2.4-15.1-10.7-22.1-14.7-9.6-5.5-25.1-12.6-29.5-13.5-1.7-.3-3-.9-3-1.3s-1.7-1.1-3.7-1.5c-2.1-.4-5.1-1.3-6.8-2-1.6-.8-5.9-1.9-9.5-2.6-3.6-.7-6.7-1.5-7-1.9-.3-.4-4.8-1.4-10-2.1-5.2-.7-9.7-1.6-10-2-.3-.3-5.9-1.2-12.5-1.9-9.1-1-41.6-1.5-134.2-1.7l-122.3-.4V464.1l-29.7-21.7c-16.4-11.9-30.6-21.9-31.5-22.2-1.7-.4-1.8 25.1-1.8 578.8zm307.5-318.1c1.1.5 6 1.4 11 2.1 4.9.6 9.4 1.5 10 1.9.5.4 3.8 1.4 7.3 2.1 3.4.7 6.2 1.6 6.2 2 0 .4 2.5 1.2 5.5 1.9s5.5 1.6 5.5 2c0 .4 1.8 1.3 4 2 2.2.6 4 1.5 4 2 0 .4 1.8 1.4 4 2.1 2.2.7 4 1.6 4 2 0 .4 1.4 1.3 3 2 1.7.7 3 1.6 3 2 0 .4 1.2 1.2 2.8 1.9 3.1 1.5 3.3 1.6 12.8 10.8 7.4 7.1 12.9 13.7 16 19 5.9 10 7.4 12.6 7.4 13.4 0 .5 1.1 3.2 2.4 6.1 1.3 2.9 2.7 6.9 3.1 8.8.4 1.9 1.1 4 1.6 4.6.5.6 1.4 4.6 2.1 9 .6 4.3 1.5 8.1 1.9 8.4.4.3 1.2 8.2 1.8 17.5 1.1 17.9-.1 53-1.9 56.3-.5.9-1.4 5.6-2.1 10.4-.6 4.9-1.4 8.8-1.8 8.8-.4 0-1.3 2.9-2 6.5s-1.7 6.5-2.2 6.5c-.5 0-.9.8-.9 1.8s-.9 3.5-2 5.7c-1.1 2.1-2.5 5.3-3.1 7.2-.6 1.8-1.6 3.9-2.2 4.6-.7.6-2 2.8-3 4.7-3.7 7.3-4.8 9-5.7 9-.5 0-1.1.8-1.4 1.8-.9 2.8-12.4 14.3-23.6 23.5-1.2 1-3.2 2.3-4.6 2.9-1.3.6-2.4 1.4-2.4 1.8 0 .4-1.5 1.3-3.2 2.1-1.8.7-3.5 1.6-3.8 2-.3.4-3.6 2.1-7.5 3.9-3.8 1.7-7.9 3.6-9 4.1-4.5 2.1-20.8 6.9-23.3 6.9-1.6 0-3.2.4-3.7.9-3.2 3.1-16.6 3.5-135.2 3.8l-119.3.4V679l108.2-.2c104-.3 132 .2 136.3 2.1zm-12 368.8c1.1.6 6.3 1.6 11.5 2.3 5.2.6 9.9 1.5 10.5 1.9.5.5 4 1.4 7.8 2.1 3.7.7 6.7 1.6 6.7 2 0 .4 1.7 1.1 3.8 1.5 2 .4 5.5 1.5 7.7 2.5 2.3 1 5.3 2.2 6.8 2.5 1.5.4 2.7 1.1 2.7 1.6s.6.9 1.4.9c1.5 0 22.7 10.6 23.6 11.8.3.4 2.5 2 5 3.7 6.2 4.1 6.3 4.1 17.6 15.2 5.5 5.4 11.4 11.6 13 13.8 1.6 2.1 3.6 4.7 4.4 5.6 3.2 3.7 4 4.9 7 10.6 1.8 3.2 3.6 6.5 4 7.3 1.8 3 7 15.9 7 17.2 0 .8.4 1.8 1 2.4.5.5 1.6 4.1 2.5 7.9.8 3.9 1.7 7.9 2 9 2.5 11 2.8 15.5 2.7 41 0 15.4-.5 31.1-1 35-1.9 12.9-5.2 29.8-6.1 30.9-.5.6-1.4 3.7-2.1 6.8-.7 3.2-1.7 5.8-2.1 5.8-.4 0-1.1 1.4-1.4 3.2-.4 1.8-2 5.5-3.6 8.3-1.6 2.7-3.8 6.9-4.9 9.2-1.1 2.4-2.5 4.3-3 4.3-.6 0-1 .5-1 1 0 3.6-16.5 21.4-24.6 26.6-1.6 1-3.5 2.4-4.2 3.1-.7.7-2.4 1.6-3.8 1.9-1.3.3-2.4 1-2.4 1.4 0 .5-1.6 1.4-3.5 2.1-1.9.7-3.5 1.6-3.5 2 0 .4-1.2 1-2.7 1.4-1.5.3-4.5 1.5-6.8 2.5-2.2 1-5.6 2.1-7.5 2.5-1.9.4-3.9 1.1-4.5 1.5-1.3 1-10.9 3-14.5 3-1.7 0-3 .4-3 .8 0 1-18.7 3.2-26.2 3.2-2.6 0-5 .4-5.3 1-.4.7-42.2 1-122.1 1H511v-323.1l115.3.3c85.2.2 115.7.6 117.2 1.5zM1327 628.8v32l6.3.7c32.9 3.4 56.7 8.5 81.2 17.3 42.6 15.4 73.9 35.4 106.2 67.9 9 9 16.5 16.3 16.7 16.3.3 0 8.5-8.9 18.3-19.8 9.7-10.8 20-22.1 22.8-25 2.7-2.9 5.2-5.8 5.4-6.3.5-1.6-30.4-31.8-41.9-40.9-21.3-16.9-51.2-34.5-77.2-45.4-36.7-15.4-78.9-24.6-128.5-28.2l-9.3-.6v32zM1233 599.8c0 .5-4.2 1.4-9.2 2-12.5 1.5-27.9 4.1-30.3 5.2-1.1.5-5.1 1.6-9 2.4-9.4 2-22.9 5.8-23.5 6.7-.3.3-2.9 1.2-5.7 1.9-2.9.6-5.3 1.5-5.3 1.9 0 .4-2.2 1.3-5 2-2.7.7-5 1.6-5 2.1 0 .4-1.2 1.1-2.7 1.5-1.5.3-5 1.7-7.9 3.1-2.8 1.3-5.6 2.4-6.2 2.4-.7 0-1.2.4-1.2.9s-1.7 1.6-3.7 2.5c-3.9 1.7-13.8 7.1-17 9.3-1 .7-5.6 3.8-10.3 6.9-4.7 3.1-8.7 6-9 6.4-.3.4-1.2 1.1-2.1 1.6-4.9 2.7-25.7 22.6-33.4 31.8-2.2 2.7-4.5 5.4-5.1 6-2.2 2.3-14.4 20.5-14.4 21.5 0 .5-.6 1.6-1.3 2.3-.6.7-2.8 4.4-4.7 8.3-1.9 3.8-3.8 7.1-4.2 7.3-.5.2-.8 1-.8 1.8 0 .7-1.1 3.7-2.4 6.6-1.3 2.9-2.7 7-3.1 9-.4 2.1-1.1 3.8-1.5 3.8-.4 0-1.3 3.4-2.1 7.5-.7 4.1-1.7 7.5-2.2 7.5-.5 0-.7 1-.6 2.2.1 1.3-.1 3-.4 3.8-3.5 9.2-3.5 75 0 84 .4.8.5 2.1.4 2.8-.1.8.2 1.9.7 2.5.5.7 1.5 4.2 2.2 8 .7 3.7 1.6 7 2.1 7.3.5.3.9 1.1.9 1.9 0 .8.5 2.6 1.2 4.2.6 1.5 1.1 3.1 1 3.5-.1.5.2.8.7.8.4 0 1.4 2 2.1 4.5.7 2.5 1.7 4.8 2.2 5.1.5.3 1.3 1.6 1.9 2.7 1 2.5 2.5 4.9 5.6 9.4 1.3 1.7 2.3 3.5 2.3 3.8 0 .9 11.4 15.9 15.5 20.3 5.4 6.1 10 10.6 16.8 16.7 6.7 6 7.8 6.9 15.2 12.5 2.2 1.6 4.5 3.4 5.2 4 .7.6 2.4 1.5 3.8 2.2 1.4.6 2.5 1.4 2.5 1.8 0 .4 1.4 1.3 3 2 1.7.7 3 1.6 3 2 0 .4 1 1 2.3 1.4 1.3.3 3.4 1.5 4.7 2.6 1.3 1.1 2.9 2 3.6 2 .7 0 1.9.6 2.6 1.2 1.3 1.3 15.5 8.4 24.8 12.6 2.5 1.1 7.1 3.2 10.2 4.6 3.1 1.4 6.3 2.6 7 2.6.8 0 2.2.6 3.3 1.4 1.1.7 3.4 1.6 5 2 1.7.4 4.4 1.4 6 2.1 1.7.8 5 1.9 7.5 2.5 2.5.7 5 1.6 5.5 2 .6.4 3.6 1.3 6.8 2 3.1.7 5.7 1.7 5.7 2.1 0 .4 1.9 1 4.3 1.4 2.3.4 5.6 1.3 7.2 2 1.7.8 5 1.9 7.5 2.5 2.5.6 5.4 1.5 6.5 2 1.9.8 10.1 3.2 22.5 6.6 3 .8 6.2 1.8 7.1 2.3.8.5 4.2 1.4 7.5 2.1 3.2.7 6.1 1.6 6.4 2 .3.4 2.4 1.1 4.8 1.5l4.2.7-.2-40.8-.3-40.8-3.9-.8c-2.2-.5-4.4-1.2-5-1.7-.6-.5-3.7-1.4-6.8-2.1-3.2-.6-6-1.5-6.3-1.9-.2-.5-3.2-1.4-6.5-2.1-3.3-.7-6-1.6-6-2 0-.4-2.6-1.3-5.7-2-3.2-.7-6.2-1.6-6.8-2-.5-.4-3.2-1.3-6-1.9-2.7-.7-5.4-1.6-6-2-.5-.4-3.2-1.4-6-2.1-2.7-.8-5.2-1.6-5.5-2-.3-.4-2.7-1.2-5.4-1.9-2.8-.7-6.8-2.1-9.1-3.1-2.2-1-5.3-2.2-6.8-2.5-1.5-.4-2.7-1.1-2.7-1.6s-.6-.9-1.3-.9c-.7 0-3-.9-5.2-2-2.1-1.1-5.3-2.5-7.2-3.1-1.8-.6-3.3-1.5-3.3-2s-.5-.9-1.1-.9c-1.4 0-18.9-9.9-20.7-11.7-.7-.7-1.7-1.3-2.1-1.3-.4 0-1.7-.8-2.8-1.8-1.1-.9-3.6-2.8-5.4-4.2-5.6-4.1-23.9-22.9-23.9-24.5 0-.3-1.1-2.1-2.5-3.9-1.4-1.8-2.5-3.8-2.5-4.4 0-.7-.4-1.2-.8-1.2-.9 0-4.6-7.9-4.3-9.3 0-.4-.3-.7-.8-.7s-1.5-2.6-2.2-5.8c-.7-3.1-1.6-5.9-2-6.2-1.1-.8-2.9-14.3-2.9-22.2 0-4.4-.5-7.9-1.2-8.6-.9-.9-.9-1.2 0-1.2.8 0 1.2-2.4 1.2-7.9 0-8.8 1.7-23 3-24.6.4-.6 1.3-3.6 2-6.8.6-3.1 1.5-5.7 1.9-5.7.5 0 1.1-1.4 1.5-3 .7-3.6 6.5-15.9 8.3-17.8.7-.7 1.3-1.8 1.3-2.3 0-1.4 14.1-19.9 15.1-19.9.5 0 .9-.4.9-.9 0-1.7 12.9-13.9 21.5-20.3 2.8-2.1 5.5-4.2 6.2-4.8.7-.5 2.4-1.5 3.8-2.2 1.4-.6 2.5-1.5 2.5-1.9 0-.4 1.6-1.3 3.5-1.9 1.9-.6 3.5-1.6 3.5-2 0-.5 1.8-1.5 4-2.1 2.2-.7 4-1.6 4-2 0-.5 1.8-1.4 4-2 2.2-.7 4-1.5 4-1.9 0-.4 2.1-1.3 4.8-2 2.6-.8 4.9-1.7 5.2-2.1.3-.4 2.8-1.4 5.5-2.1 2.8-.7 5.2-1.5 5.5-1.9.3-.3 3-1.2 6-1.8 3-.7 6.4-1.7 7.5-2.2 1.1-.5 6.1-1.6 11-2.4 5-.9 11-2 13.5-2.5s11.6-1.2 20.3-1.6l15.7-.7V599h-16c-8.8 0-16 .4-16 .8zM1327 1007.5c0 21.6.4 39.6.9 39.9.4.3 8.2 2.8 17.2 5.5 86.1 26 130.3 50.2 157.3 86.1 16.2 21.6 23.4 42.5 25.2 73.3 1 17.9-3.1 42.9-10.2 62.9-10.5 29-32.7 55.4-62 73.6-33.5 20.8-69.2 31.1-116.6 33.8l-11.8.7v64.9l8.8-.6c35.3-2.5 61.9-6.5 86.7-13.1 29.7-7.8 59.7-21.1 84.4-37.3 39.6-26.1 69.3-64.5 82.9-107.4 9.4-29.4 12.7-52.7 11.9-83.3-1.3-47.1-11.5-79.2-36-113.1-30.7-42.5-77.6-72.8-151.9-98.2-19.5-6.7-52.6-17.1-71.8-22.7-6.9-2-13.1-3.8-13.7-4-1-.3-1.3 7.9-1.3 39zM1017.7 1270.4c-2.1 2.4-4.8 5.7-6 7.3-1.2 1.6-3.1 3.8-4.2 4.9-1.1 1.1-4.2 4.7-7 7.9-2.7 3.2-6.8 8-9 10.6-2.2 2.5-6 7-8.5 9.9-2.5 2.9-5.3 6.1-6.2 7.2-2.2 2.3-2.3 2.2.5 5.1 1.2 1.3 6 6.6 10.7 11.7 7.2 7.9 11.8 12.5 21.9 22 1.4 1.3 8.9 7.6 15.6 13.2.9.7 2.4 2 3.4 2.8.9.8 3.9 3.1 6.7 5 2.7 1.9 5.5 4 6.2 4.7.7.7 1.7 1.3 2.2 1.3.5 0 1.5.6 2.2 1.3.7.7 3.6 2.7 6.3 4.5 5.3 3.4 6.1 3.9 11.5 7.4 1.9 1.3 4.6 2.9 6 3.6 1.4.7 4.3 2.4 6.5 3.7 2.2 1.3 5.7 3.2 7.8 4.1 2 .9 3.7 1.9 3.7 2.4 0 .4 1.8 1.2 4 1.9 2.2.6 4 1.6 4 2.1 0 .6.5 1 1.2 1 .6 0 3 .8 5.2 1.9 12.2 5.6 15.4 7 17.9 7.6 1.5.4 2.7 1 2.7 1.4 0 .5 2.5 1.4 5.5 2.1 3 .7 5.5 1.6 5.5 2 0 .4 2.6 1.3 5.8 2 3.1.7 6.2 1.6 6.7 2 .6.4 4.6 1.6 9 2.5 4.4 1 8.5 2.1 9 2.5.6.4 4.6 1.3 9 2s8.5 1.6 9 2c.6.4 5.7 1.3 11.5 2s11 1.6 11.5 2.1c.6.4 5.6 1 11.3 1.4 5.6.4 10.2 1.1 10.2 1.6s8.6.9 19 .9h19V1385.3l-15.7-.7c-8.7-.4-17.8-1.1-20.3-1.6s-8.5-1.6-13.5-2.5c-4.9-.8-9.9-1.9-11-2.5-1.1-.5-4.7-1.4-8-2.1-3.3-.6-6.4-1.5-7-1.9-.5-.4-3.2-1.3-6-1.9-2.7-.7-5.4-1.6-6-2-.5-.5-3.4-1.4-6.2-2.2-2.9-.7-5.3-1.6-5.3-1.9 0-.3-2.2-1.2-5-1.9-2.7-.7-5-1.6-5-2.1 0-.4-1.2-1.1-2.7-1.5-1.5-.3-5.2-1.7-8.1-3.1-2.9-1.3-5.7-2.4-6.2-2.4-.6 0-1-.4-1-.8 0-.5-1.8-1.4-4-2.1-2.2-.6-4-1.5-4-2 0-.4-1.8-1.4-4-2.1-2.2-.7-4-1.6-4-2 0-.4-2-1.5-4.5-2.4-2.5-1-4.5-2.1-4.5-2.5 0-.4-1.6-1.3-3.5-2s-3.5-1.6-3.5-2c0-.4-1.1-1.3-2.4-1.9-4.2-1.9-15.6-9.5-15.6-10.4 0-.4-.6-.8-1.2-.8-.7 0-2.6-1.1-4.3-2.5-1.6-1.3-4-3.2-5.3-4.2-4-3-7.3-5.7-9.1-7.3-1-.8-3.7-3.1-6.2-5-4-3.1-10.1-8.7-19.9-18.2-6-5.9-14.8-15.5-16.5-18.2-1-1.4-2.2-2.6-2.9-2.6-.6 0-2.8 2-4.9 4.4zM1260.5 1548.7c-44 40.8-107.8 83.1-166.6 110.4-71.2 33.1-141.1 51.5-223.4 59.1-18.5 1.7-83.5 1.7-102 0-69.6-6.4-126.7-19.7-187.5-43.7-20.3-8-46.3-19.8-60.8-27.5l-9.2-5 .2 39.7.3 39.8 12.5 5.7c70 31.9 147.8 52.3 230.5 60.5 25.9 2.5 104.1 2.5 130 0 137.3-13.6 260.4-61 369.8-142.5l12.7-9.5v-46.4c0-25.4-.1-46.3-.2-46.3-.2.1-3 2.6-6.3 5.7z"/></svg>