<?xml version="1.0" standalone="no"?><!DOCTYPE svg PUBLIC "-//W3C//DTD SVG 20010904//EN"
 "http://www.w3.org/TR/2001/REC-SVG-20010904/DTD/svg10.dtd"><svg version="1.0" xmlns="http://www.w3.org/2000/svg" width="176" height="125" viewBox="0 0 1321 944"><metadata>Created by potrace 1.16, written by Peter Selinger 2001-2019</metadata><path d="M448.5 1.1C339.3 7.6 246.1 43.4 166 109.8c-14.9 12.3-50 47.5-62.2 62.2-48 58.2-78.4 120.6-93.2 191.7C-2.3 425.8-3.2 494 8.1 561.2c15.2 90.7 56.3 173.3 119.6 240.6C216.6 896.3 336.7 944 486 944c146.1 0 269.4-48.7 361.1-142.6 12.2-12.6 31.9-35 31.9-36.5 0-.7-68.5-52.8-70.5-53.5-1-.4-3.2 1.3-6.2 4.7-9.7 11.1-30.2 31.5-42.1 41.9-63.5 55.9-133.1 87-218.2 97.5-17.4 2.2-63.6 3-83.5 1.6-88.2-6.5-159.3-33.6-223.9-85.4-13-10.4-46.9-44.3-57.2-57.3-45.4-56.8-70.2-117.1-79.1-191.9-2.5-21.2-2.5-73.8 0-95 7.1-59.3 25.3-112.1 54.7-159C213.1 173 315.5 108.9 433.5 92.9c19.4-2.6 66.6-3.7 88-2 83.7 6.8 156.2 34.8 218.5 84.5 19.6 15.7 49.6 46.4 65 66.5l2.5 3.2 35.7-27.3c22-16.8 35.5-27.8 35.3-28.6-.9-2.4-15.7-21.2-26.5-33.6-74.5-84.9-182.1-139.1-302-152C518.1.1 480.8-.8 448.5 1.1z"/><path d="M659.4 220.2c-.4.6-2.1 3.7-3.7 6.7-1.6 3.1-3.2 5.8-3.6 6.1-.3.3-1.5 2.3-2.6 4.4-4.5 8.9-5.7 11-7.1 12.3-.8.8-1.4 2-1.4 2.7 0 .7-.9 2.3-2 3.6-1.1 1.3-2.3 3.4-2.6 4.7-.4 1.3-1 2.3-1.4 2.3-.4 0-1.6 2-2.7 4.5-1 2.5-2.1 4.5-2.5 4.5-.4 0-1.4 1.5-2.3 3.2-.8 1.8-3.1 6-5 9.3-2 3.3-3.9 6.8-4.2 7.7-.3 1-.9 1.8-1.3 1.8s-1.1 1.1-1.4 2.4c-.3 1.4-1.2 3.1-1.9 3.8-.7.7-2 2.6-2.9 4.3-3.6 6.8-5.5 10.1-7.2 12.7-1.2 1.8-1.6 3.7-1.2 5.3l.6 2.5h21.6c23.1 0 22.6.1 25.4-5.5.8-1.7 1.7-3.2 2-3.5.9-.9 4-6.4 6.2-11 1.2-2.5 2.5-4.7 2.8-5 .7-.5 2.1-3 5.7-10 1-1.9 2.3-3.8 2.9-4.2.6-.4 1.6-2.5 2.4-4.8.7-2.2 1.7-4 2.2-4 .5 0 1.4-1.4 1.9-3 .6-1.7 1.4-3 1.8-3 .4 0 1.3-1.6 2.1-3.5s1.6-3.5 1.9-3.5c.3 0 1.5-1.9 2.6-4.3 1.1-2.3 2.2-4.4 2.5-4.7 1-.8 4-7.7 4-9 0-.6-5.8-7-12.8-14.1-9.9-10-13.4-12.9-15.5-12.9-1.4 0-2.9.5-3.3 1.2zM205 363.8c0 2 2.8 8.3 4.1 9.2.6.5 1.8 2.6 6.4 11.6 1.1 2.1 2.6 4.5 3.3 5.2.6.7 1.2 1.7 1.2 2.2 0 .5.6 1.5 1.3 2.2.7.7 2.1 3.2 3.1 5.5 1.1 2.4 2.2 4.3 2.6 4.3.3 0 1.2 1.6 2 3.5s1.7 3.5 2.1 3.5c.4 0 1.2 1.3 1.8 3 .5 1.6 1.4 3 2 3 .5 0 1.2 1.3 1.6 2.9.3 1.6 1.7 4.3 3.1 6.2 1.3 1.8 2.4 3.9 2.4 4.5 0 .7.6 1.7 1.3 2.1.6.4 2 2.4 3 4.3.9 1.9 3.1 5.7 4.7 8.5 1.6 2.7 3.4 6.2 4 7.7.7 1.6 1.5 2.8 1.9 2.8.3 0 1.2 1.5 2 3.2.8 1.8 1.7 3.5 2.1 3.8.3.3 2.4 3.6 4.5 7.5 2.1 3.8 4.2 7.2 4.6 7.5.4.3 1.1 1.8 1.4 3.3.4 1.5 1.2 3.1 1.9 3.5.6.4 2 2.5 3.1 4.7s2.2 4.2 2.5 4.5c.8.8 3.8 6.2 5.6 10 .9 1.9 2 3.7 2.4 4 .7.5 1.9 2.5 6.5 11.6 1.1 2.1 2.6 4.3 3.3 4.7.6.4 1.2 1.4 1.2 2.2 0 .7.6 2 1.3 2.7.7.7 2.3 3.3 3.5 5.8 2.2 4.7 5.3 10.2 6.2 11 .3.3 1.1 1.6 1.8 3s2.6 4.7 4.3 7.5c1.6 2.7 3.6 6.4 4.4 8.2.8 1.7 1.8 3.3 2.2 3.5.5.1 1.7 2.1 2.8 4.2 4.5 8.9 5.7 11 7.1 12.3.8.8 1.4 2 1.4 2.7 0 .7.9 2.3 2 3.6 1.1 1.3 2.3 3.4 2.6 4.7.4 1.3.9 2.3 1.3 2.3s1.5 2 2.6 4.5 2.3 4.5 2.8 4.5c.4 0 .7.5.7 1.1 0 .6.9 2.3 2 3.9 1 1.5 3.5 5.6 5.4 9.1 3 5.5 3.8 6.4 6.5 6.5 2.7.1 3.2-.3 4.7-4.2.9-2.4 2-4.4 2.4-4.4.4 0 1.3-1.5 2.1-3.3.7-1.7 1.6-3.4 1.9-3.7.4-.3 2.4-3.7 4.5-7.5 2.1-3.9 4.2-7.2 4.5-7.5.4-.3 1.3-2 2.1-3.8.8-1.7 1.7-3.2 2-3.2.4 0 1.2-1.2 1.9-2.8.6-1.5 2.4-5 4-7.7 1.6-2.8 3.7-6.7 4.6-8.8.9-2 2-3.7 2.4-3.7.4 0 1.3-1.5 2.1-3.3.7-1.7 1.8-3.5 2.4-3.9.6-.4 1.7-2.5 2.5-4.8.7-2.2 1.7-4 2.2-4 .5 0 1.4-1.4 1.9-3 .6-1.7 1.4-3 1.8-3 .4 0 1.3-1.6 2.1-3.5s1.7-3.5 2-3.5c.4 0 1.5-1.9 2.6-4.3 1-2.3 2.1-4.4 2.5-4.7.8-.6 7.3-12.3 10-17.8 1.1-2.3 2.4-4.2 2.8-4.2.5 0 1.2-1.1 1.5-2.4.3-1.4 1.2-3.1 1.9-3.8 1.3-1.3 4.1-6.1 7.2-12.7.9-1.9 2.3-4 3.1-4.8.8-.8 1.7-2.5 2-3.9.3-1.3 1-2.4 1.5-2.4s1.5-1.5 2.4-3.3c1.3-2.8 3.5-7 8.6-15.7.8-1.4 1.6-2.7 1.9-3 .5-.5 2.3-3.8 6.4-11.5 1.2-2.2 2.4-4.2 2.7-4.5.6-.5 2.1-3.2 5.6-10 1-1.9 2.3-3.8 2.9-4.2.6-.4 1.6-2.5 2.4-4.8.7-2.2 1.7-4 2.1-4 .5 0 1.6-1.5 2.4-3.3.9-1.7 2.9-5.5 4.5-8.2 1.7-2.8 3.6-6.1 4.2-7.5.7-1.4 1.5-2.7 1.8-3 .6-.6 1.4-2 7.9-13.5 2.5-4.4 4.8-8.2 5.1-8.5 1.1-1 3-6.1 3-8 0-1.9-.8-2-22.4-2h-22.3l-2.7 4c-1.4 2.2-2.6 4.4-2.6 4.9s-.3 1.1-.7 1.3c-.5.1-1.6 1.9-2.6 3.8-2.8 5.6-6.2 11.5-6.8 12-.6.5-2.1 3.2-5.6 10-1 1.9-2.3 3.8-2.9 4.2-.6.4-1.6 2.5-2.4 4.8-.7 2.2-1.7 4-2.1 4-.5 0-1.6 1.5-2.4 3.2-.9 1.8-2.9 5.5-4.5 8.3-1.7 2.7-3.6 6.1-4.2 7.5-.7 1.4-1.5 2.7-1.8 3-.3.3-1.2 1.8-2 3.5-.8 1.6-1.8 3.2-2.1 3.5-.3.3-1.2 1.7-2 3.1-4.6 8.6-6.2 11.5-6.8 11.9-.4.3-1.3 2-2 3.7-.8 1.8-1.7 3.3-2.1 3.3-.5 0-1.4 1.5-2 3.4-.6 1.9-1.7 4-2.5 4.6-.8.6-1.9 2.8-2.6 4.7-.6 1.9-2 4.4-3 5.4-1.1 1.1-1.9 2.6-1.9 3.4 0 .8-.4 1.5-.9 1.5s-1.5 1.6-2.2 3.5c-.7 1.9-1.6 3.5-1.9 3.5-.4 0-1.5 1.9-2.6 4.2-1 2.4-2.4 4.9-3.1 5.6-.7.7-1.3 1.7-1.3 2.2 0 .5-.6 1.5-1.2 2.2-.7.7-2.1 2.9-3.1 4.8-3.1 6.1-6.2 11.5-6.9 12-.4.3-1.2 1.7-1.8 3-.6 1.4-2.3 4.6-3.8 7.1s-3.5 6.1-4.6 7.9c-1 1.9-2.5 4-3.2 4.8-.8.7-1.4 1.8-1.4 2.4 0 1.5-3.6-3.3-4.4-6-.4-1.2-1.1-2.2-1.5-2.2-.4 0-1.5-2-2.5-4.5-1.1-2.5-2.3-4.5-2.7-4.5-.4 0-1.3-1.6-2-3.5s-1.6-3.5-2-3.5c-.4 0-.9-.8-1.3-1.8-.3-.9-2.2-4.4-4.1-7.7-2-3.3-4.2-7.5-5-9.3-.9-1.7-1.9-3.2-2.3-3.2-.4 0-1.4-1.6-2.1-3.5-.7-1.9-1.6-3.5-2-3.5-.5 0-1.6-2-2.5-4.5-1-2.5-2.1-4.5-2.6-4.5s-1.4-1.6-2-3.5c-.6-1.9-1.5-3.5-2-3.5-.4 0-1.3-1.5-2.1-3.3-.7-1.7-1.6-3.4-2-3.7-.3-.3-1.6-2.3-2.8-4.5-1.2-2.2-3.5-6.3-5.1-9-1.7-2.8-3.3-5.7-3.7-6.5-.3-.8-.9-1.7-1.3-2-.3-.3-1.4-2.4-2.4-4.8-1.1-2.3-2.2-4.2-2.6-4.2-.5 0-1.1-1.1-1.4-2.4-.3-1.4-1.2-3.1-1.9-3.8-1.5-1.4-3.4-4.8-6.7-11.6-1.2-2.3-2.5-4.2-2.9-4.2-.4 0-1.4-1.8-2.1-4-.7-2.2-1.7-4-2.1-4-.5 0-1.6-1.5-2.4-3.3-.9-1.7-2.9-5.5-4.5-8.2-1.6-2.8-3.5-6.1-4.2-7.5-.7-1.4-1.5-2.7-1.8-3-.6-.6-3.9-6.6-6.7-12-.9-1.9-2.3-4.1-3-4.8-.7-.7-1.3-1.7-1.3-2.2 0-.5-.6-1.5-1.2-2.2-.7-.8-1.8-2.3-2.4-3.3-1-1.9-2.5-2-23.8-2.3-21.5-.2-22.6-.1-22.6 1.6zM578.4 362.8c-1 .6-4.8 7.2-10.6 18.1-1 1.9-2.1 3.7-2.5 4-.5.3-1.7 2.4-2.8 4.5-4.5 8.9-5.7 11-7.1 12.3-.8.8-1.4 2-1.4 2.7 0 .7-.9 2.3-2 3.6-1.1 1.3-2.3 3.4-2.6 4.7-.4 1.3-1 2.3-1.4 2.3-.4 0-1.6 2-2.7 4.5-1 2.5-2.1 4.5-2.5 4.5-.5 0-.8.5-.8 1.1 0 .6-1.3 2.9-2.8 5.2-1.5 2.3-4.1 6.7-5.7 9.7-1.5 3-3.1 5.7-3.5 6-.3.3-1.2 2-1.9 3.7-.8 1.8-1.7 3.3-2.1 3.3-.5 0-1.4 1.5-2 3.4-.6 1.9-1.5 3.6-1.9 3.8-.8.3-1.7 1.9-6.6 11.4-1.1 2.1-2.6 4.3-3.2 4.7-.7.4-1.3 1.3-1.3 2s-1.1 2.9-2.4 4.8c-1.4 2-2.8 4.8-3.2 6.3-.3 1.4-1 2.6-1.4 2.6-.5 0-1.2.9-1.5 2-.3 1.1-1.2 2.6-1.8 3.2-.7.7-2 2.9-3 4.8-2.8 5.6-6.2 11.5-6.8 12-.6.5-2.1 3.2-5.6 10-1 1.9-2.3 4.1-3 4.8-.6.7-1.7 2.8-2.4 4.7-.7 1.9-1.7 3.5-2.1 3.5-.4 0-1.4 1.5-2.2 3.2-1.6 3.5-4.7 9-5.7 9.8-.3.3-1.3 2.3-2.3 4.5-1.1 2.2-2.2 4.2-2.5 4.5-.3.3-1.3 1.8-2.1 3.5-.8 1.6-1.8 3.2-2.1 3.5-.7.6-2.9 4.7-5.9 10.7-1.1 2.3-2.4 4.3-2.8 4.5-.4.2-1.5 1.9-2.4 3.8-1.8 3.5-2.2 4.1-6.4 11-1.2 1.9-2.5 4.6-2.9 5.8-.4 1.3-1.6 3.3-2.6 4.3s-1.9 2.6-1.9 3.4c0 .8-.4 1.5-.8 1.5-.5 0-1.4 1.6-2.2 3.5-.8 1.9-1.7 3.5-2 3.5-.4 0-1.5 2-2.6 4.5-1 2.5-2.1 4.5-2.5 4.5-.4 0-1.1.9-1.4 2-.3 1.1-1.2 2.6-1.8 3.2-.7.7-2.1 3.1-3.2 5.2-4.5 8.9-5.7 11-7 12.2-.7.8-1.6 2.7-2 4.4-.4 1.6-1.1 3-1.6 3-.8 0-2.9 3.5-6.4 10.9-.9 1.9-2.3 4-3.1 4.8-.8.8-1.7 2.5-2 3.9-.3 1.3-1 2.4-1.4 2.4-3.1 0-3.7 13.3-.7 15.5.8.5 1.9 2.7 2.6 4.7.7 2 1.6 3.8 2 4 .5.2 1.7 1.9 2.7 4 6.2 12.2 10 17.8 11.9 17.8 2.8 0 3.9-1 5.4-4.8.8-1.7 1.7-3.2 2.1-3.2.4 0 1.5-1.7 2.4-3.8 2.2-4.9 5.2-10.4 6.6-11.9.5-.7 1.6-2.5 2.2-4 .7-1.5 1.5-3 1.9-3.3.3-.3 2.3-3.7 4.4-7.5 2-3.9 4.6-8.2 5.6-9.7 1.1-1.4 1.9-3.1 1.9-3.6 0-.6.3-1.2.8-1.4.4-.2 1.6-2.1 2.7-4.2 4.5-8.9 5.7-11 7.1-12.3.8-.8 1.4-2 1.4-2.7 0-.7.9-2.3 2-3.6 1.1-1.3 2.3-3.4 2.6-4.7.4-1.3 1-2.3 1.4-2.3.4 0 1.6-2 2.7-4.5 1-2.5 2.1-4.5 2.6-4.5.4 0 .7-.5.7-1.1 0-.6 1.3-2.9 2.8-5.2 1.5-2.3 4.1-6.7 5.7-9.7 1.5-3 3.1-5.7 3.4-6 .3-.3 1.4-2.1 2.4-4 .9-1.9 2.8-5.3 4.2-7.5 1.4-2.2 3.2-5.7 4.1-7.8 1-2 2-3.7 2.4-3.7.4 0 1.3-1.5 2.1-3.3.7-1.7 1.6-3.4 1.9-3.7.7-.6 4.2-6.5 8.8-15 1.9-3.6 3.8-6.7 4.1-7 .3-.3 1.5-2.3 2.6-4.4 4.5-8.9 5.7-11 7.1-12.3.8-.8 1.4-2.1 1.4-2.8 0-.7.6-2 1.4-2.8 1.4-1.3 2.6-3.4 7.1-12.3 1.1-2.1 2.6-4.3 3.3-4.7.6-.4 1.2-1.2 1.2-1.8 0-1 9.9-19 10.9-19.9.3-.3 1.5-2.3 2.6-4.4 4.5-8.9 5.7-11 7.1-12.3.8-.8 1.4-2 1.4-2.7 0-.7.9-2.3 2-3.6 1.1-1.3 2.3-3.4 2.6-4.7.4-1.3 1-2.3 1.4-2.3.4 0 1.6-2 2.7-4.5 1-2.5 2.1-4.5 2.4-4.5.4 0 1.2-1.5 2-3.3.7-1.7 1.6-3.4 1.9-3.7.4-.3 2.4-3.7 4.5-7.5 2.1-3.9 4.2-7.2 4.5-7.5.3-.3 1.2-2 1.9-3.8.8-1.7 1.7-3.2 2.1-3.2.4 0 1.4-1.7 2.4-3.8.9-2 2.7-5.5 4.1-7.7 1.4-2.2 3.3-5.6 4.2-7.5 1-1.9 2.3-4 2.8-4.6.6-.6 2.6-4.2 4.5-8 1.9-3.7 4.1-7.4 4.8-8.2.6-.7 1.2-1.7 1.2-2.2 0-.5.6-1.5 1.3-2.2.6-.7 2.1-3.1 3.2-5.2 4.5-8.9 5.7-11 7.1-12.3.8-.8 1.4-2.5 1.4-3.9V362h-22.2c-12.3 0-22.8.4-23.4.8zM954.7 388.7c-.4.3-.7 13.7-.7 29.6v28.9l-3.5-3.1c-5.9-5.1-11.3-7.4-19.1-7.9-17.1-1.1-31.3 7.8-37.6 23.6-2.1 5.4-2.3 7.3-2.6 37.1-.5 41.7.6 47.6 10.5 58.2 8.8 9.4 21.7 13.4 35.4 11.1 8.6-1.5 13.7-4 20-9.9 5.6-5.2 9.2-12.2 10.8-20.7 1.6-8.8 1.5-144.8-.1-146.4-1.3-1.3-12-1.7-13.1-.5zm-11.5 65.8c3 2.1 5.2 4.8 7.3 9l3 6v64.1l-3 5.9c-2.3 4.6-4.2 6.6-7.9 9-4.4 2.7-5.8 3-12.6 3s-8.2-.3-12.6-3c-3.7-2.4-5.6-4.4-7.9-9l-3-5.9v-64.1l2.6-5.6c4.5-9.5 10.6-13 22.1-12.6 6.6.2 8.2.6 12 3.2zM626.3 437.4c-13.7 4.5-24.2 18.3-24.6 32.6l-.2 5.5h13.8l1.7-6.2c3.7-13.4 10.5-18.8 23-18.1 5.7.3 7.7.9 11.2 3.4 2.4 1.6 5.4 5 6.8 7.4 2.2 4 2.5 5.9 2.8 16.7l.4 12.1-17.3.4c-17.1.3-17.5.3-24.1 3.5-12.3 5.8-19.5 16.2-20.5 29.8-1.7 21.7 11.1 38.2 32 41.5 18.2 2.8 34.2-5.1 41.5-20.8l2.7-5.7v-77l-2.7-5.7c-3.4-7.3-10.4-14.3-17.5-17.5-6.9-3.2-22.1-4.2-29-1.9zm34.7 81.9c0 16.3-1.3 20.9-7.4 26.5-5.7 5.2-13.1 7.1-21 5.3-11.5-2.6-17.9-10.8-18-23.1-.1-9.1 3.5-15.3 11.3-19.3 5.2-2.6 6.1-2.7 20.3-2.7H661v13.3zM724.5 437.3c-13.2 4.4-21.6 13.3-25 26.3-1.9 7.3-2.2 65.1-.4 73.6 3.4 16.1 16.1 27.6 32.6 29.4 21.7 2.3 38.9-11 42.5-33 1.5-9.3 1.2-9.8-6.9-9.4l-6.7.3-1.8 7.3c-3.4 14.1-11.9 21-24.3 20-10.5-.9-18.3-7.9-20.5-18.3-.7-3.6-1-15.6-.8-35.2.3-26.1.5-30.3 2.1-33.8 4-8.8 11.2-13.5 20.7-13.5 7.2 0 12.2 2.2 16.8 7.4 2.9 3.3 6.2 11.7 6.2 15.8 0 1.6.9 1.8 7 1.8 8.4 0 8.8-.5 7.2-9-2.3-12.8-9.8-22.6-21-27.8-6.8-3.1-21-4.1-27.7-1.9zM818.4 438c-11.7 3.8-20.9 15.3-23.5 29.3-1.5 8.3-1.2 8.7 7 8.7h7l.6-3.8c1.2-7 2.7-10.5 6.4-14.5 4.5-5 8.5-6.7 15.8-6.7 7.3 0 13 2.6 17.1 7.6 4.2 5 5.1 8.6 5.9 21.6l.6 10.6-17.9.4c-16.9.3-18.2.5-23.6 3-16.6 7.8-24.7 24.8-20.4 43.3 2 8.5 5 13.8 11.1 19.4 11.2 10.3 30.5 12.7 45.1 5.6 6.8-3.4 14.6-11.9 17.5-19.3 2.2-5.4 2.4-7.1 2.7-37.6.4-35.7-.2-41.9-5-50.9-3.8-7-9.2-12.1-16.7-15.5-7.7-3.6-20.9-4.1-29.7-1.2zm36.4 82c-.5 12.6-.8 14.4-3.3 19.6-4.9 10-15.9 14.4-27.7 11-9.7-2.8-15.9-11.4-15.9-22.5-.1-9.6 4.1-16.4 12.3-20.1 3.7-1.7 6.6-2 19.7-2h15.4l-.5 14zM1019.5 437.4c-11 2.7-19.3 9.7-24.2 20.1l-2.8 6v76l2.9 6.2c3.3 7.2 10.4 14.4 16.9 17.3 6.9 3.1 17.4 4.3 24.8 3 17.1-3.1 28-14.5 31-32.3 1.6-9.4 1.3-9.7-7-9.7h-7l-.6 3.7c-1.6 10.3-4.6 16.1-10.4 20-7.1 4.8-16.2 5.3-23.9 1.4-8.9-4.6-12.1-11.5-12.2-26.3v-10.6l17.3-.4c15.3-.3 17.8-.6 22.2-2.6 7.8-3.6 12.1-7 15.9-12.5 11.7-17.3 7.2-43-9.6-54.1-9.2-6.1-21.8-8-33.3-5.2zm18.8 14.8c12.8 3.8 19.2 21 12.7 33.8-2.3 4.5-4.4 6.4-10 8.9-3.9 1.8-6.6 2.1-19.3 2.1h-14.9l.4-15.3c.3-15.1.4-15.5 3.3-20.2 5.5-8.9 16.7-12.6 27.8-9.3zM1114.3 437.8c-10.8 3.9-17 9.9-21.5 21.1-2.3 5.6-2.3 5.9-2.3 55.1v49.5l7.2.3 7.2.3.3-48.3.3-48.4 2.5-4.8c3.8-7.3 8.7-10.9 15.9-11.4 7.3-.5 12.2 1 16.2 5.1 6.5 6.4 6.4 5.4 6.9 58.7l.5 48.5 7.2.3 7.2.3.3-47.8c.3-47.4.3-47.8 2.6-52.8 1.2-2.7 3-5.8 4-6.8 6.8-7.5 22.6-7.5 29.4 0 1 1 2.8 4.1 4 6.8 2.3 5 2.3 5.4 2.6 52.8l.3 47.8 7.2-.3 7.2-.3.3-45c.2-29.4-.1-47.2-.8-51.4-3.1-18.3-15.3-29.8-32.5-30.9-11-.7-17.3 1.5-24.5 8.6-3.1 3.1-6 6.4-6.3 7.2-.5 1.2-.8 1.2-1.8-.4-2.8-4.6-8.7-10-13.3-12.3-6.9-3.5-18.7-4.2-26.3-1.5zM1245.2 439.2c-.9.9-1.2 11.2-1.2 43.7 0 53.4.5 56.3 10.8 67.4 13 13.9 34.2 15.4 47.8 3.5l3.6-3.2-.4 17.5c-.3 16.4-.5 17.8-2.9 22.4-7.3 14.3-30.2 15.5-38.8 2-1.6-2.6-3.2-6.5-3.6-8.8-1.6-10.5-.8-9.7-8.6-9.7-8.3 0-8.6.3-7 9.7 2.4 14.4 11 25.8 22.9 30.4 8.1 3.2 22.3 3.2 30.4 0 7.9-3.1 15-9.7 19-17.9l3.3-6.7v-151l-4.9-.3c-2.7-.2-6-.1-7.2.2l-2.3.6-.3 45.8c-.3 44.8-.3 45.8-2.5 49.8-4.7 8.7-12.8 13-23 12.2-7.9-.7-14-4.9-17.8-12.3l-3-5.9-.5-45-.5-45.1-6-.3c-3.8-.2-6.5.2-7.3 1z"/></svg>