<?xml version="1.0" encoding="iso-8859-1"?>
<!-- Generator: Adobe Illustrator 19.0.0, SVG Export Plug-In . SVG Version: 6.00 Build 0)  -->
<svg version="1.1" id="Capa_1" xmlns="http://www.w3.org/2000/svg" xmlns:xlink="http://www.w3.org/1999/xlink" x="0px" y="0px"
	 viewBox="0 0 512 512" style="enable-background:new 0 0 512 512;" xml:space="preserve">
<circle style="fill:#FF7473;" cx="256" cy="256" r="256"/>
<path style="fill:#DA1716;" d="M512,256c0-6.903-0.282-13.74-0.818-20.505L403,127.313L114.887,379.799L246.91,511.822
	c3.018,0.105,6.045,0.178,9.089,0.178C397.385,512,512,397.385,512,256z"/>
<polygon style="fill:#D6E6FD;" points="366.373,127.313 237.687,127.313 226.193,265.7 237.687,384.687 384.687,384.687 "/>
<g>
	<polygon style="fill:#6C819F;" points="338.903,265.7 237.687,265.7 231.94,274.313 237.687,282.927 338.903,282.927 	"/>
	<polygon style="fill:#6C819F;" points="338.903,302.327 237.687,302.327 231.94,310.94 237.687,319.553 338.903,319.553 	"/>
	<polygon style="fill:#6C819F;" points="338.903,338.953 237.687,338.953 231.94,347.567 237.687,356.18 338.903,356.18 	"/>
	<polygon style="fill:#6C819F;" points="237.687,155.82 226.193,201.06 237.687,246.3 338.36,246.3 338.36,155.82 	"/>
</g>
<path style="fill:#F4F4FF;" d="M109,127.313c0,0,0,180.254,0,239.062c0,10.114,8.199,18.312,18.313,18.312h110.373V127.313H109z"/>
<g>
	<path style="fill:#A1B8D8;" d="M366.373,127.313v239.06c0,10.114,8.199,18.313,18.313,18.313l0,0
		c10.114,0,18.313-8.199,18.313-18.313v-239.06L366.373,127.313L366.373,127.313z"/>
	<rect x="136.47" y="155.82" style="fill:#A1B8D8;" width="82.36" height="17.227"/>
	<rect x="136.47" y="192.45" style="fill:#A1B8D8;" width="82.36" height="17.227"/>
	<rect x="136.47" y="229.07" style="fill:#A1B8D8;" width="82.36" height="17.227"/>
	<rect x="136.47" y="265.7" style="fill:#A1B8D8;" width="101.22" height="17.227"/>
	<rect x="136.47" y="302.33" style="fill:#A1B8D8;" width="101.22" height="17.227"/>
	<rect x="136.47" y="338.95" style="fill:#A1B8D8;" width="101.22" height="17.227"/>
</g>
<g>
</g>
<g>
</g>
<g>
</g>
<g>
</g>
<g>
</g>
<g>
</g>
<g>
</g>
<g>
</g>
<g>
</g>
<g>
</g>
<g>
</g>
<g>
</g>
<g>
</g>
<g>
</g>
<g>
</g>
</svg>
